<svg width="14" height="14" viewBox="0 0 14 14" fill="none" xmlns="http://www.w3.org/2000/svg">
<g clip-path="url(#clip0_204_3790)">
<path d="M7 7V10.5" stroke="#7D7D7D" stroke-width="1.5" stroke-linecap="round"/>
<path d="M7.00002 10.5C6.02373 10.5 5.17402 11.0904 4.73532 11.9612C4.52579 12.3772 4.82645 12.8333 5.22597 12.8333H8.77407C9.17359 12.8333 9.47425 12.3772 9.26472 11.9612C8.82603 11.0904 7.97631 10.5 7.00002 10.5Z" stroke="#7D7D7D" stroke-width="1.5" stroke-linecap="round"/>
<path d="M2.91669 2.91667H2.32443C1.74896 2.91667 1.46123 2.91667 1.28345 3.13281C1.10568 3.34895 1.15781 3.59098 1.26208 4.07505C1.46123 4.99967 1.89322 5.81198 2.47855 6.41667" stroke="#7D7D7D" stroke-width="1.5" stroke-linecap="round"/>
<path d="M11.0834 2.91667H11.6756C12.2511 2.91667 12.5388 2.91667 12.7166 3.13281C12.8944 3.34895 12.8423 3.59098 12.738 4.07505C12.5388 4.99967 12.1068 5.81198 11.5215 6.41667" stroke="#7D7D7D" stroke-width="1.5" stroke-linecap="round"/>
<path d="M7.00002 7C9.25518 7 11.0834 5.18181 11.0834 2.93896C11.0834 2.88014 11.0821 2.82162 11.0796 2.76342C11.0547 2.18053 11.0422 1.88909 10.6472 1.52788C10.2522 1.16667 9.81445 1.16667 8.93904 1.16667H5.061C4.18559 1.16667 3.74789 1.16667 3.35285 1.52788C2.95782 1.88909 2.94536 2.18053 2.92043 2.76342C2.91794 2.82162 2.91669 2.88014 2.91669 2.93896C2.91669 5.18181 4.74486 7 7.00002 7Z" stroke="#7D7D7D" stroke-width="1.5" stroke-linecap="round"/>
</g>
<defs>
<clipPath id="clip0_204_3790">
<rect width="14" height="14" fill="white"/>
</clipPath>
</defs>
</svg>
