<svg width="18" height="18" viewBox="0 0 18 18" fill="none" xmlns="http://www.w3.org/2000/svg">
<path d="M9.00033 0.666626C4.39199 0.666626 0.666992 4.39163 0.666992 8.99996C0.666992 13.6083 4.39199 17.3333 9.00033 17.3333C13.6087 17.3333 17.3337 13.6083 17.3337 8.99996C17.3337 4.39163 13.6087 0.666626 9.00033 0.666626ZM12.5837 12.5833C12.5066 12.6605 12.415 12.7218 12.3142 12.7637C12.2134 12.8055 12.1053 12.827 11.9962 12.827C11.887 12.827 11.7789 12.8055 11.6781 12.7637C11.5773 12.7218 11.4858 12.6605 11.4087 12.5833L9.00033 10.175L6.59199 12.5833C6.43618 12.7391 6.22485 12.8266 6.00449 12.8266C5.78414 12.8266 5.57281 12.7391 5.41699 12.5833C5.26118 12.4275 5.17364 12.2161 5.17364 11.9958C5.17364 11.8867 5.19513 11.7786 5.23689 11.6778C5.27864 11.577 5.33984 11.4854 5.41699 11.4083L7.82533 8.99996L5.41699 6.59163C5.26118 6.43581 5.17364 6.22448 5.17364 6.00413C5.17364 5.78377 5.26118 5.57244 5.41699 5.41663C5.57281 5.26081 5.78414 5.17328 6.00449 5.17328C6.22485 5.17328 6.43618 5.26081 6.59199 5.41663L9.00033 7.82496L11.4087 5.41663C11.4858 5.33947 11.5774 5.27827 11.6782 5.23652C11.779 5.19477 11.887 5.17328 11.9962 5.17328C12.1053 5.17328 12.2133 5.19477 12.3141 5.23652C12.4149 5.27827 12.5065 5.33947 12.5837 5.41663C12.6608 5.49378 12.722 5.58537 12.7638 5.68617C12.8055 5.78698 12.827 5.89502 12.827 6.00413C12.827 6.11323 12.8055 6.22127 12.7638 6.32208C12.722 6.42288 12.6608 6.51447 12.5837 6.59163L10.1753 8.99996L12.5837 11.4083C12.9003 11.725 12.9003 12.2583 12.5837 12.5833Z" fill="black"/>
</svg>
