<svg width="352" height="288" viewBox="0 0 352 288" fill="none" xmlns="http://www.w3.org/2000/svg">
<g filter="url(#filter0_d_452_7806)">
<rect x="4" width="344" height="280" rx="30" fill="white"/>
<rect x="4.5" y="0.5" width="343" height="279" rx="29.5" stroke="#EAEAEA"/>
<line x1="31" y1="172.5" x2="321" y2="172.5" stroke="url(#paint0_linear_452_7806)"/>
<g filter="url(#filter1_d_452_7806)">
<rect x="107" y="173" width="97.5807" height="97.5807" rx="16" transform="rotate(-45 107 173)" fill="#F3F2FD"/>
<rect x="107.707" y="173" width="96.5807" height="96.5807" rx="15.5" transform="rotate(-45 107.707 173)" stroke="url(#paint1_linear_452_7806)"/>
</g>
<rect x="124.707" y="173" width="72.5391" height="72.5391" rx="9.5" transform="rotate(-45 124.707 173)" fill="white" stroke="url(#paint2_linear_452_7806)"/>
<path d="M192.434 161.986C193.146 163.827 192.148 165.088 190.216 166.329C188.658 167.331 186.673 168.416 184.569 170.272C182.507 172.09 180.494 174.281 178.706 176.437C176.924 178.585 175.41 180.643 174.341 182.167C173.649 183.152 172.685 184.621 172.685 184.621C172.004 185.698 170.781 186.349 169.47 186.333C168.158 186.317 166.953 185.635 166.302 184.542C164.638 181.747 163.355 180.643 162.765 180.246C161.186 179.185 159.333 179.028 159.333 176.556C159.333 174.592 160.991 173 163.037 173C164.481 173.054 165.823 173.622 167.012 174.421C167.772 174.932 168.578 175.607 169.415 176.497C170.399 175.156 171.583 173.609 172.911 172.008C174.84 169.683 177.116 167.188 179.558 165.035C181.958 162.919 184.732 160.937 187.673 159.89C189.591 159.207 191.723 160.145 192.434 161.986Z" fill="#4538CB" stroke="#4538CB" stroke-width="1.5" stroke-linecap="round" stroke-linejoin="round"/>
<g filter="url(#filter2_di_452_7806)">
<path d="M46 39C46 26.2975 56.2975 16 69 16H283C295.703 16 306 26.2975 306 39C306 51.7025 295.703 62 283 62H69C56.2974 62 46 51.7025 46 39Z" fill="#FEFEFF"/>
<path d="M69 19.75H283C293.631 19.75 302.25 28.3685 302.25 39C302.25 49.6315 293.631 58.25 283 58.25H69C58.3685 58.25 49.75 49.6315 49.75 39C49.75 28.3685 58.3685 19.75 69 19.75Z" fill="#FEFEFF"/>
<path d="M69 19.75H283C293.631 19.75 302.25 28.3685 302.25 39C302.25 49.6315 293.631 58.25 283 58.25H69C58.3685 58.25 49.75 49.6315 49.75 39C49.75 28.3685 58.3685 19.75 69 19.75Z" stroke="#F1F1F1" stroke-width="1.5"/>
<path d="M130.151 43H128.753L133.342 34.2727H134.864L136.555 43H135.158L133.884 35.858H133.815L130.151 43ZM130.952 39.5824H135.486L135.298 40.6903H130.764L130.952 39.5824ZM137.653 43L138.744 36.4545H139.976L139.801 37.4943H139.869C140.045 37.142 140.303 36.8651 140.641 36.6634C140.979 36.4588 141.34 36.3565 141.723 36.3565C141.805 36.3565 141.899 36.3594 142.004 36.3651C142.109 36.3679 142.195 36.375 142.26 36.3864L142.055 37.6051C142.007 37.5909 141.919 37.5753 141.791 37.5582C141.663 37.5384 141.531 37.5284 141.395 37.5284C141.097 37.5284 140.82 37.5923 140.564 37.7202C140.308 37.8452 140.094 38.0199 139.92 38.2443C139.747 38.4659 139.635 38.7187 139.584 39.0028L138.928 43H137.653ZM146.755 36.4545L146.589 37.4773H143.014L143.18 36.4545H146.755ZM144.395 34.8864H145.669L144.637 41.0781C144.598 41.3253 144.605 41.5114 144.659 41.6364C144.713 41.7585 144.795 41.8423 144.906 41.8878C145.02 41.9304 145.146 41.9517 145.285 41.9517C145.387 41.9517 145.477 41.9446 145.554 41.9304C145.63 41.9162 145.691 41.9048 145.737 41.8963L145.805 42.9489C145.72 42.9773 145.605 43.0057 145.46 43.0341C145.318 43.0653 145.145 43.0824 144.94 43.0852C144.605 43.0909 144.302 43.0312 144.032 42.9062C143.762 42.7784 143.561 42.5852 143.427 42.3267C143.294 42.0653 143.261 41.7372 143.329 41.3423L144.395 34.8864ZM148.433 43L147.598 36.4545H148.914L149.396 41.2614H149.46L151.548 36.4545H152.865L153.342 41.2401H153.406L155.481 36.4545H156.798L153.785 43H152.485L151.94 38.2741H151.842L149.728 43H148.433ZM159.444 43.1321C158.822 43.1321 158.302 42.9901 157.884 42.706C157.467 42.419 157.173 42.0185 157.002 41.5043C156.835 40.9872 156.806 40.3864 156.917 39.7017C157.025 39.0312 157.242 38.446 157.569 37.946C157.898 37.446 158.31 37.0582 158.805 36.7827C159.302 36.5071 159.854 36.3693 160.462 36.3693C161.085 36.3693 161.603 36.5128 162.018 36.7997C162.435 37.0866 162.729 37.4886 162.9 38.0057C163.07 38.5227 163.1 39.125 162.989 39.8125C162.881 40.4773 162.661 41.0597 162.329 41.5597C161.999 42.0568 161.587 42.4432 161.093 42.7188C160.599 42.9943 160.049 43.1321 159.444 43.1321ZM159.516 42.0625C159.925 42.0625 160.282 41.9545 160.586 41.7386C160.893 41.5227 161.143 41.2358 161.336 40.8778C161.529 40.5199 161.661 40.1278 161.732 39.7017C161.798 39.2898 161.796 38.9134 161.728 38.5724C161.663 38.2287 161.521 37.9531 161.302 37.7457C161.083 37.5384 160.779 37.4347 160.39 37.4347C159.981 37.4347 159.622 37.544 159.312 37.7628C159.005 37.9787 158.755 38.267 158.562 38.6278C158.372 38.9886 158.242 39.3821 158.174 39.8082C158.109 40.2173 158.109 40.5938 158.174 40.9375C158.239 41.2784 158.381 41.5511 158.6 41.7557C158.819 41.9602 159.124 42.0625 159.516 42.0625ZM163.827 43L164.918 36.4545H166.15L165.975 37.4943H166.043C166.22 37.142 166.477 36.8651 166.815 36.6634C167.153 36.4588 167.514 36.3565 167.897 36.3565C167.979 36.3565 168.073 36.3594 168.178 36.3651C168.283 36.3679 168.369 36.375 168.434 36.3864L168.229 37.6051C168.181 37.5909 168.093 37.5753 167.965 37.5582C167.837 37.5384 167.705 37.5284 167.569 37.5284C167.271 37.5284 166.994 37.5923 166.738 37.7202C166.482 37.8452 166.268 38.0199 166.095 38.2443C165.921 38.4659 165.809 38.7187 165.758 39.0028L165.102 43H163.827ZM169.935 40.7798L170.178 39.2244H170.403L173.48 36.4545H175.006L171.511 39.608H171.311L169.935 40.7798ZM168.396 43L169.845 34.2727H171.119L169.671 43H168.396ZM172.53 43L170.706 39.8892L171.725 38.9986L174.094 43H172.53ZM178.132 43L179.223 36.4545H180.497L179.406 43H178.132ZM180.126 35.4318C179.905 35.4318 179.717 35.358 179.564 35.2102C179.413 35.0597 179.344 34.8807 179.355 34.6733C179.366 34.4631 179.454 34.2841 179.619 34.1364C179.784 33.9858 179.976 33.9105 180.194 33.9105C180.416 33.9105 180.602 33.9858 180.753 34.1364C180.903 34.2841 180.974 34.4631 180.966 34.6733C180.954 34.8807 180.866 35.0597 180.701 35.2102C180.54 35.358 180.348 35.4318 180.126 35.4318ZM186.792 38.0526L185.603 38.2571C185.577 38.1065 185.525 37.9645 185.445 37.831C185.368 37.6974 185.25 37.5895 185.091 37.5071C184.932 37.4219 184.721 37.3793 184.456 37.3793C184.09 37.3793 183.769 37.4631 183.493 37.6307C183.221 37.7983 183.064 38.0114 183.025 38.2699C182.988 38.4801 183.037 38.6506 183.174 38.7812C183.31 38.9091 183.55 39.0156 183.894 39.1009L184.9 39.3395C185.479 39.4787 185.894 39.696 186.144 39.9915C186.397 40.2841 186.485 40.6648 186.408 41.1335C186.343 41.5227 186.172 41.8679 185.897 42.169C185.624 42.4702 185.275 42.706 184.848 42.8764C184.422 43.0469 183.948 43.1321 183.425 43.1321C182.681 43.1321 182.101 42.9744 181.687 42.6591C181.272 42.3438 181.059 41.8977 181.047 41.321L182.309 41.1335C182.331 41.4545 182.447 41.6974 182.654 41.8622C182.864 42.0241 183.155 42.1051 183.527 42.1051C183.954 42.108 184.31 42.0185 184.597 41.8366C184.884 41.6548 185.047 41.4347 185.087 41.1761C185.121 40.9744 185.076 40.8068 184.951 40.6733C184.829 40.5398 184.613 40.4375 184.303 40.3665L183.246 40.1236C182.655 39.9844 182.238 39.7599 181.993 39.4503C181.749 39.1406 181.667 38.7514 181.746 38.2827C181.809 37.8991 181.971 37.5653 182.232 37.2812C182.496 36.9943 182.83 36.7713 183.233 36.6122C183.637 36.4503 184.083 36.3693 184.572 36.3693C185.285 36.3693 185.82 36.5227 186.178 36.8295C186.536 37.1335 186.741 37.5412 186.792 38.0526ZM190.55 43L191.64 36.4545H192.872L192.697 37.4943H192.765C192.942 37.142 193.199 36.8651 193.537 36.6634C193.875 36.4588 194.236 36.3565 194.619 36.3565C194.702 36.3565 194.795 36.3594 194.9 36.3651C195.005 36.3679 195.091 36.375 195.156 36.3864L194.952 37.6051C194.903 37.5909 194.815 37.5753 194.687 37.5582C194.559 37.5384 194.427 37.5284 194.291 37.5284C193.993 37.5284 193.716 37.5923 193.46 37.7202C193.204 37.8452 192.99 38.0199 192.817 38.2443C192.643 38.4659 192.531 38.7187 192.48 39.0028L191.824 43H190.55ZM197.688 43.1321C197.046 43.1321 196.515 42.9943 196.094 42.7188C195.677 42.4403 195.384 42.0497 195.216 41.5469C195.049 41.0412 195.022 40.4489 195.135 39.7699C195.246 39.0994 195.469 38.5085 195.805 37.9972C196.14 37.4858 196.557 37.0866 197.057 36.7997C197.56 36.5128 198.116 36.3693 198.724 36.3693C199.093 36.3693 199.441 36.4304 199.768 36.5526C200.097 36.6747 200.377 36.8665 200.607 37.1278C200.837 37.3892 200.996 37.7287 201.084 38.1463C201.175 38.5611 201.172 39.0653 201.076 39.6591L201.003 40.1108H195.796L195.945 39.1562H199.9C199.959 38.821 199.944 38.5241 199.853 38.2656C199.762 38.0043 199.606 37.7983 199.384 37.6477C199.165 37.4972 198.89 37.4219 198.557 37.4219C198.216 37.4219 197.898 37.5114 197.603 37.6903C197.307 37.8693 197.06 38.098 196.861 38.3764C196.665 38.652 196.542 38.9361 196.491 39.2287L196.341 40.1023C196.268 40.5795 196.28 40.9631 196.38 41.2528C196.482 41.5426 196.661 41.7528 196.917 41.8835C197.172 42.0142 197.492 42.0795 197.876 42.0795C198.123 42.0795 198.351 42.0455 198.562 41.9773C198.775 41.9062 198.964 41.8026 199.128 41.6662C199.293 41.527 199.431 41.3537 199.542 41.1463L200.709 41.3636C200.553 41.7187 200.329 42.0298 200.036 42.2969C199.743 42.5611 199.398 42.767 199.001 42.9148C198.606 43.0597 198.168 43.1321 197.688 43.1321ZM203.778 43.1449C203.363 43.1449 203.001 43.0682 202.692 42.9148C202.382 42.7585 202.153 42.5327 202.006 42.2372C201.858 41.9418 201.819 41.5795 201.89 41.1506C201.953 40.7812 202.075 40.4773 202.257 40.2386C202.442 40 202.666 39.8111 202.93 39.6719C203.194 39.5298 203.481 39.4233 203.791 39.3523C204.101 39.2812 204.413 39.2287 204.729 39.1946C205.126 39.1491 205.449 39.1108 205.696 39.0795C205.946 39.0483 206.133 39 206.258 38.9347C206.383 38.8665 206.459 38.7557 206.484 38.6023V38.5724C206.544 38.2031 206.49 37.9162 206.322 37.7116C206.158 37.5043 205.871 37.4006 205.461 37.4006C205.035 37.4006 204.677 37.4943 204.388 37.6818C204.101 37.8693 203.889 38.0795 203.753 38.3125L202.611 38.0398C202.815 37.642 203.075 37.321 203.39 37.0767C203.709 36.8295 204.057 36.6506 204.434 36.5398C204.812 36.4261 205.199 36.3693 205.594 36.3693C205.855 36.3693 206.126 36.4006 206.408 36.4631C206.689 36.5227 206.944 36.6335 207.175 36.7955C207.408 36.9574 207.581 37.1889 207.694 37.4901C207.808 37.7884 207.825 38.1761 207.746 38.6534L207.025 43H205.781L205.934 42.1051H205.883C205.775 42.2699 205.625 42.4318 205.432 42.5909C205.241 42.75 205.008 42.8821 204.733 42.9872C204.457 43.0923 204.139 43.1449 203.778 43.1449ZM204.213 42.1222C204.568 42.1222 204.882 42.0526 205.155 41.9134C205.43 41.7741 205.653 41.5923 205.824 41.3679C205.994 41.1406 206.101 40.8977 206.143 40.6392L206.284 39.7955C206.23 39.8409 206.135 39.8821 205.998 39.919C205.865 39.956 205.714 39.9886 205.547 40.017C205.379 40.0455 205.214 40.0696 205.052 40.0895C204.893 40.1094 204.761 40.1278 204.656 40.1449C204.406 40.1761 204.172 40.2287 203.953 40.3026C203.737 40.3764 203.557 40.483 203.412 40.6222C203.267 40.7585 203.176 40.9403 203.139 41.1676C203.088 41.483 203.163 41.7216 203.365 41.8835C203.569 42.0426 203.852 42.1222 204.213 42.1222ZM211.104 43.1278C210.573 43.1278 210.123 42.9929 209.753 42.723C209.387 42.4503 209.127 42.0625 208.974 41.5597C208.823 41.054 208.806 40.4474 208.922 39.7401C209.042 39.0327 209.262 38.4276 209.583 37.9247C209.904 37.4219 210.293 37.0369 210.751 36.7699C211.208 36.5028 211.701 36.3693 212.229 36.3693C212.636 36.3693 212.951 36.4375 213.175 36.5739C213.403 36.7074 213.57 36.8636 213.678 37.0426C213.786 37.2216 213.867 37.3793 213.921 37.5156H213.993L214.535 34.2727H215.809L214.36 43H213.116L213.29 41.9815H213.184C213.084 42.1207 212.947 42.2798 212.77 42.4588C212.597 42.6378 212.376 42.794 212.106 42.9276C211.836 43.0611 211.502 43.1278 211.104 43.1278ZM211.535 42.0412C211.901 42.0412 212.229 41.9446 212.519 41.7514C212.812 41.5554 213.055 41.2841 213.248 40.9375C213.444 40.5909 213.58 40.1875 213.657 39.7273C213.734 39.2727 213.732 38.875 213.653 38.5341C213.573 38.1932 213.42 37.9276 213.192 37.7372C212.965 37.5469 212.665 37.4517 212.293 37.4517C211.91 37.4517 211.576 37.5511 211.292 37.75C211.008 37.9489 210.775 38.2202 210.593 38.5639C210.414 38.9077 210.289 39.2955 210.218 39.7273C210.144 40.1648 210.141 40.5582 210.209 40.9077C210.278 41.2571 210.421 41.5341 210.64 41.7386C210.859 41.9403 211.157 42.0412 211.535 42.0412ZM216.519 45.4545C216.326 45.4545 216.154 45.4389 216.003 45.4077C215.853 45.3793 215.741 45.348 215.667 45.3139L216.153 44.2699C216.377 44.3324 216.577 44.3565 216.753 44.3423C216.932 44.3281 217.1 44.2543 217.256 44.1207C217.412 43.9872 217.572 43.777 217.734 43.4901L217.972 43.0597L216.689 36.4545H218.002L218.812 41.5469H218.88L221.386 36.4545H222.805L218.88 43.8651C218.695 44.2173 218.485 44.5099 218.249 44.7429C218.016 44.9787 217.755 45.1563 217.465 45.2756C217.178 45.3949 216.863 45.4545 216.519 45.4545Z" fill="#191919"/>
</g>
</g>
<defs>
<filter id="filter0_d_452_7806" x="0" y="0" width="352" height="288" filterUnits="userSpaceOnUse" color-interpolation-filters="sRGB">
<feFlood flood-opacity="0" result="BackgroundImageFix"/>
<feColorMatrix in="SourceAlpha" type="matrix" values="0 0 0 0 0 0 0 0 0 0 0 0 0 0 0 0 0 0 127 0" result="hardAlpha"/>
<feMorphology radius="2" operator="erode" in="SourceAlpha" result="effect1_dropShadow_452_7806"/>
<feOffset dy="4"/>
<feGaussianBlur stdDeviation="3"/>
<feComposite in2="hardAlpha" operator="out"/>
<feColorMatrix type="matrix" values="0 0 0 0 0 0 0 0 0 0 0 0 0 0 0 0 0 0 0.11 0"/>
<feBlend mode="normal" in2="BackgroundImageFix" result="effect1_dropShadow_452_7806"/>
<feBlend mode="normal" in="SourceGraphic" in2="effect1_dropShadow_452_7806" result="shape"/>
</filter>
<filter id="filter1_d_452_7806" x="109.327" y="106.327" width="133.346" height="133.345" filterUnits="userSpaceOnUse" color-interpolation-filters="sRGB">
<feFlood flood-opacity="0" result="BackgroundImageFix"/>
<feColorMatrix in="SourceAlpha" type="matrix" values="0 0 0 0 0 0 0 0 0 0 0 0 0 0 0 0 0 0 127 0" result="hardAlpha"/>
<feOffset/>
<feGaussianBlur stdDeviation="2.15"/>
<feComposite in2="hardAlpha" operator="out"/>
<feColorMatrix type="matrix" values="0 0 0 0 0.560784 0 0 0 0 0.533333 0 0 0 0 0.878431 0 0 0 0.5 0"/>
<feBlend mode="normal" in2="BackgroundImageFix" result="effect1_dropShadow_452_7806"/>
<feBlend mode="normal" in="SourceGraphic" in2="effect1_dropShadow_452_7806" result="shape"/>
</filter>
<filter id="filter2_di_452_7806" x="42" y="13" width="268" height="54" filterUnits="userSpaceOnUse" color-interpolation-filters="sRGB">
<feFlood flood-opacity="0" result="BackgroundImageFix"/>
<feColorMatrix in="SourceAlpha" type="matrix" values="0 0 0 0 0 0 0 0 0 0 0 0 0 0 0 0 0 0 127 0" result="hardAlpha"/>
<feOffset dy="1"/>
<feGaussianBlur stdDeviation="2"/>
<feComposite in2="hardAlpha" operator="out"/>
<feColorMatrix type="matrix" values="0 0 0 0 0.560784 0 0 0 0 0.533333 0 0 0 0 0.878431 0 0 0 0.5 0"/>
<feBlend mode="normal" in2="BackgroundImageFix" result="effect1_dropShadow_452_7806"/>
<feBlend mode="normal" in="SourceGraphic" in2="effect1_dropShadow_452_7806" result="shape"/>
<feColorMatrix in="SourceAlpha" type="matrix" values="0 0 0 0 0 0 0 0 0 0 0 0 0 0 0 0 0 0 127 0" result="hardAlpha"/>
<feOffset dx="-2" dy="2"/>
<feGaussianBlur stdDeviation="1.5"/>
<feComposite in2="hardAlpha" operator="arithmetic" k2="-1" k3="1"/>
<feColorMatrix type="matrix" values="0 0 0 0 1 0 0 0 0 1 0 0 0 0 1 0 0 0 0.1 0"/>
<feBlend mode="normal" in2="shape" result="effect2_innerShadow_452_7806"/>
</filter>
<linearGradient id="paint0_linear_452_7806" x1="31" y1="173.5" x2="321" y2="173.5" gradientUnits="userSpaceOnUse">
<stop stop-color="#8F88E0" stop-opacity="0.2"/>
<stop offset="0.519231" stop-color="#4538CB"/>
<stop offset="1" stop-color="#8F88E0" stop-opacity="0.2"/>
</linearGradient>
<linearGradient id="paint1_linear_452_7806" x1="198.924" y1="178.657" x2="157.558" y2="220.023" gradientUnits="userSpaceOnUse">
<stop stop-color="#8175F9"/>
<stop offset="1" stop-color="#C3BEFB" stop-opacity="0.5"/>
</linearGradient>
<linearGradient id="paint2_linear_452_7806" x1="193.276" y1="177.263" x2="162.102" y2="208.437" gradientUnits="userSpaceOnUse">
<stop stop-color="#8175F9"/>
<stop offset="1" stop-color="#C3BEFB" stop-opacity="0.5"/>
</linearGradient>
</defs>
</svg>
