<svg width="352" height="288" viewBox="0 0 352 288" fill="none" xmlns="http://www.w3.org/2000/svg">
<g filter="url(#filter0_d_452_7759)">
<rect x="4" width="344" height="280" rx="30" fill="white"/>
<rect x="4.5" y="0.5" width="343" height="279" rx="29.5" stroke="#EAEAEA"/>
<g filter="url(#filter1_di_452_7759)">
<path d="M16 50C16 38.8095 16 33.2142 17.9881 28.8609C20.1866 24.0468 24.0468 20.1866 28.8609 17.9881C33.2142 16 38.8095 16 50 16H302C313.191 16 318.786 16 323.139 17.9881C327.953 20.1866 331.813 24.0468 334.012 28.8609C336 33.2142 336 38.8095 336 50C336 61.1905 336 66.7858 334.012 71.1391C331.813 75.9532 327.953 79.8134 323.139 82.0119C318.786 84 313.191 84 302 84H50C38.8095 84 33.2142 84 28.8609 82.0119C24.0468 79.8134 20.1866 75.9532 17.9881 71.1391C16 66.7858 16 61.1905 16 50Z" fill="#FEFEFF"/>
<rect x="19.75" y="19.75" width="60.5" height="60.5" rx="19.25" fill="#FEFEFF"/>
<rect x="19.75" y="19.75" width="60.5" height="60.5" rx="19.25" stroke="#F1F1F1" stroke-width="1.5"/>
<g clip-path="url(#clip0_452_7759)">
<path d="M62.619 47.8004H58.3699V40.4921C58.3699 35.947 54.6719 32.249 50.1269 32.249C45.5818 32.249 41.8838 35.947 41.8838 40.4921V47.8004H37.6348V40.4921C37.6348 33.6041 43.2389 28 50.1269 28C57.0148 28 62.619 33.6041 62.619 40.4921V47.8004Z" fill="#DFDEE2"/>
<path d="M62.6183 40.4922V47.8005H58.3693V45.8459C60.0689 45.1661 60.7487 43.8064 60.7487 41.9368V40.4922C60.7487 33.9176 55.6444 28.5145 49.1914 28.0348C49.2599 28.0293 49.3294 28.0256 49.3988 28.0211C49.4125 28.0211 49.4262 28.0192 49.44 28.0183C49.4884 28.0156 49.5377 28.0129 49.5862 28.0119C49.6053 28.0119 49.6254 28.0101 49.6446 28.0092C49.672 28.0092 49.6995 28.0065 49.7278 28.0065C49.7826 28.0037 49.8365 28.0028 49.8914 28.0019C49.9699 28.0001 50.0485 27.9991 50.1271 27.9991C57.016 27.9991 62.6192 33.6024 62.6192 40.4912L62.6183 40.4922Z" fill="#B4B1CF"/>
<path d="M63.4254 46.2708H36.8275C35.8182 46.2708 35 47.089 35 48.0983V69.1725C35 70.1818 35.8182 71 36.8275 71H63.4254C64.4347 71 65.253 70.1818 65.253 69.1725V48.0983C65.253 47.089 64.4347 46.2708 63.4254 46.2708Z" fill="#DDDAFF"/>
<path d="M53.1815 62.5321C53.3176 63.3865 52.6579 64.1586 51.7935 64.1586H48.4591C47.5947 64.1586 46.9359 63.3865 47.0711 62.5321L47.5454 59.556C46.8317 58.8743 46.3867 57.914 46.3867 56.8503C46.3867 54.7852 48.0607 53.1112 50.1258 53.1112C52.191 53.1112 53.865 54.7852 53.865 56.8503C53.865 57.914 53.4209 58.8743 52.7063 59.556L53.1806 62.5321H53.1815Z" fill="#81818B"/>
<path d="M65.2534 47.9704V69.3004C65.2534 70.2398 64.4931 71 63.5538 71H41.7988C50.6368 71 60.0696 69.5553 60.0696 59.3577V50.6897C60.0696 48.2491 58.0913 46.2708 55.6506 46.2708H63.5538C64.4931 46.2708 65.2534 47.031 65.2534 47.9704Z" fill="#C7C1F9"/>
<path d="M36.4443 48.3597V59.6977C36.4443 59.6977 40.1844 50.486 47.9413 47.7155H37.0885C36.7331 47.7155 36.4443 48.0042 36.4443 48.3597Z" fill="#D0CBF9"/>
<path d="M46.8976 57.0632C46.8976 58.1268 47.3417 59.0872 48.0562 59.7688L47.582 62.745C47.4915 63.3097 47.7501 63.8388 48.1842 64.1321C47.4605 63.9895 46.9515 63.2932 47.0721 62.533L47.5464 59.5569C46.8327 58.8752 46.3877 57.9148 46.3877 56.8512C46.3877 54.7861 48.0617 53.1121 50.1268 53.1121C50.7345 53.1121 51.3092 53.2573 51.8164 53.515C51.4463 53.3908 51.0488 53.325 50.6367 53.325C48.5716 53.325 46.8976 54.999 46.8976 57.0641V57.0632Z" fill="#56546B"/>
<path d="M47.5773 28.9348C47.5773 28.9348 38.9943 30.5878 38.3145 39.8973H39.9291C39.9291 39.8973 40.269 32.5022 47.5773 28.9348Z" fill="#EFEFEF"/>
</g>
<rect x="271.75" y="19.75" width="60.5" height="60.5" rx="19.25" fill="#FEFEFF"/>
<rect x="271.75" y="19.75" width="60.5" height="60.5" rx="19.25" stroke="#F1F1F1" stroke-width="1.5"/>
<g clip-path="url(#clip1_452_7759)">
<path d="M323.81 48.7994C323.786 47.9607 323.706 47.1315 323.584 46.3205L319.265 45.6047L317.8 41.5183L320.679 38.2189C319.806 36.7663 318.767 35.4294 317.593 34.227L313.677 36.1931L310.087 33.752L310.475 29.3848C308.986 28.7571 307.411 28.285 305.777 28.0013L303.742 31.8878L299.4 31.9896L297.169 28.2094C295.5 28.5898 293.904 29.1557 292.407 29.8918L293.048 34.2292L289.596 36.8689L285.574 35.1326C284.47 36.3961 283.508 37.7883 282.717 39.2896L285.777 42.4181L284.544 46.5794L280.27 47.5425C280.193 48.4037 280.16 49.2839 280.187 50.1778C280.218 50.9939 280.291 51.7941 280.401 52.5833L284.723 53.3114L286.173 57.4029L283.276 60.6943C284.152 62.1476 285.186 63.4991 286.36 64.7051L290.284 62.7514L293.867 65.2034L293.461 69.572C294.998 70.2223 296.619 70.7118 298.304 70.9999L300.326 67.104L304.668 66.984L306.906 70.7577C308.574 70.37 310.167 69.7953 311.663 69.0563L311.01 64.7211L314.449 62.0662L318.475 63.7915C319.579 62.5193 320.539 61.1249 321.324 59.6251L318.246 56.509L319.463 52.3352L323.74 51.3656C323.809 50.5197 323.838 49.6628 323.808 48.8001L323.81 48.7994ZM308.452 56.8356C304.401 60.3946 298.221 60.0157 294.646 55.9431C291.09 51.8748 291.484 45.7037 295.549 42.1475C299.596 38.571 305.779 38.9681 309.342 43.0254C312.923 47.0908 312.512 53.275 308.452 56.8363V56.8356Z" fill="#DDDAFF"/>
<path d="M312.753 40.0448C307.537 34.1064 298.481 33.515 292.542 38.7296C286.608 43.9501 286.02 52.9907 291.248 58.9385C296.462 64.8747 305.512 65.4588 311.446 60.2449C317.387 55.0303 317.969 45.9802 312.753 40.0455V40.0448ZM310.52 59.1902C305.168 63.8935 297.005 63.3668 292.302 58.0119C287.585 52.6474 288.116 44.4927 293.468 39.7836C298.826 35.0796 306.994 35.6135 311.698 40.97C316.403 46.3228 315.878 54.4862 310.52 59.1902H310.52Z" fill="#B7ACD9"/>
<path d="M293.725 65.1054L293.869 65.2036L293.536 69.5344L293.463 69.5715C295 70.2218 296.62 70.7113 298.305 70.9993L298.266 70.9288L300.329 67.1042L304.67 66.9842L306.951 70.6829L306.908 70.7579C308.576 70.3702 310.169 69.7955 311.665 69.0565L311.594 69.026L311.013 64.722L314.452 62.0671L318.474 63.7182L318.478 63.7917C319.583 62.5195 320.543 61.1251 321.327 59.6253L321.252 59.6456L318.249 56.5091L319.467 52.3354L323.689 51.312L323.744 51.3658C323.813 50.5199 323.841 49.663 323.812 48.8003C323.788 47.9617 323.707 47.1324 323.585 46.3214L323.539 46.3832L322.328 46.1628C314.214 57.8621 302.788 62.9319 293.727 65.1068L293.725 65.1054Z" fill="#C7C1F9"/>
<path d="M311.447 60.2449C313.485 58.4563 314.892 56.2152 315.651 53.8047C314.856 54.5292 314.049 55.2129 313.232 55.8588C312.539 57.0815 311.636 58.2119 310.521 59.191C308.085 61.3317 305.066 62.3849 302.057 62.3965C301.078 62.8061 300.106 63.1778 299.146 63.5138C303.38 64.3721 307.953 63.3145 311.447 60.2449Z" fill="#8881CC"/>
<path d="M293.2 33.283L292.784 29.769C292.784 29.769 294.862 28.6736 296.449 28.4088C296.449 28.4088 293.88 29.3537 293.2 33.283H293.2Z" fill="#BBB6EA"/>
</g>
<line x1="94" y1="32.5" x2="256" y2="32.5" stroke="url(#paint0_linear_452_7759)" stroke-dasharray="2 2"/>
<line x1="94" y1="49.5" x2="256" y2="49.5" stroke="url(#paint1_linear_452_7759)" stroke-dasharray="2 2"/>
<path d="M94 67H157C160.771 67 162.657 67 163.828 68.1716C165 69.3431 165 71.2288 165 75V80" stroke="url(#paint2_linear_452_7759)" stroke-dasharray="2 2"/>
<path d="M256 67H193C189.229 67 187.343 67 186.172 68.1716C185 69.3431 185 71.2288 185 75V80" stroke="url(#paint3_linear_452_7759)" stroke-dasharray="2 2"/>
</g>
<g filter="url(#filter2_d_452_7759)">
<path d="M131 172C131 155.029 131 146.544 136.272 141.272C141.544 136 150.029 136 167 136H185C201.971 136 210.456 136 215.728 141.272C221 146.544 221 155.029 221 172V190C221 206.971 221 215.456 215.728 220.728C210.456 226 201.971 226 185 226H167C150.029 226 141.544 226 136.272 220.728C131 215.456 131 206.971 131 190V172Z" fill="#FEFEFF"/>
<path d="M167 137H185C193.513 137 199.798 137.002 204.617 137.65C209.408 138.294 212.601 139.56 215.021 141.979C217.44 144.399 218.706 147.592 219.35 152.383C219.998 157.202 220 163.487 220 172V190C220 198.513 219.998 204.798 219.35 209.617C218.706 214.408 217.44 217.601 215.021 220.021C212.601 222.44 209.408 223.706 204.617 224.35C199.798 224.998 193.513 225 185 225H167C158.487 225 152.202 224.998 147.383 224.35C142.592 223.706 139.399 222.44 136.979 220.021C134.56 217.601 133.294 214.408 132.65 209.617C132.002 204.798 132 198.513 132 190V172C132 163.487 132.002 157.202 132.65 152.383C133.294 147.592 134.56 144.399 136.979 141.979C139.399 139.56 142.592 138.294 147.383 137.65C152.202 137.002 158.487 137 167 137Z" stroke="#4538CB" stroke-width="2"/>
<path d="M185.666 185.429H169.625H185.666ZM185.666 179.143H178.791H185.666ZM195.979 186.083C195.979 194.725 195.979 199.047 193.126 201.731C190.273 204.414 185.682 204.417 176.5 204.417H174.728C167.257 204.417 163.517 204.417 160.923 202.588C160.185 202.07 159.525 201.449 158.964 200.743C157.021 198.3 157.021 194.785 157.021 187.749V181.917C157.021 175.127 157.021 171.731 158.095 169.02C159.823 164.659 163.476 161.221 168.11 159.594C170.988 158.583 174.593 158.583 181.812 158.583C185.932 158.583 187.995 158.583 189.64 159.161C192.287 160.091 194.375 162.055 195.362 164.546C195.977 166.095 195.977 168.036 195.977 171.916L195.979 186.083Z" fill="#F3F2FF"/>
<path d="M185.666 185.429H169.625M185.666 179.143H178.791M195.979 186.083C195.979 194.725 195.979 199.047 193.126 201.731C190.273 204.414 185.682 204.417 176.5 204.417H174.728C167.257 204.417 163.517 204.417 160.923 202.588C160.185 202.07 159.525 201.449 158.964 200.743C157.021 198.3 157.021 194.785 157.021 187.749V181.917C157.021 175.127 157.021 171.731 158.095 169.02C159.823 164.659 163.476 161.221 168.11 159.594C170.988 158.583 174.593 158.583 181.812 158.583C185.932 158.583 187.995 158.583 189.64 159.161C192.287 160.091 194.375 162.055 195.362 164.546C195.977 166.095 195.977 168.036 195.977 171.916L195.979 186.083Z" stroke="#D2CEFE" stroke-width="1.5" stroke-linecap="round" stroke-linejoin="round"/>
<mask id="path-27-inside-1_452_7759" fill="white">
<path d="M157.021 181.5C157.021 179.474 157.825 177.531 159.258 176.099C160.69 174.667 162.633 173.862 164.659 173.862C166.185 173.862 167.984 174.128 169.467 173.731C170.114 173.557 170.705 173.215 171.179 172.741C171.654 172.266 171.995 171.675 172.168 171.027C172.565 169.544 172.299 167.745 172.299 166.219C172.3 164.194 173.105 162.252 174.537 160.82C175.969 159.388 177.912 158.583 179.937 158.583"/>
</mask>
<path d="M157.021 181.5C157.021 179.474 157.825 177.531 159.258 176.099C160.69 174.667 162.633 173.862 164.659 173.862C166.185 173.862 167.984 174.128 169.467 173.731C170.114 173.557 170.705 173.215 171.179 172.741C171.654 172.266 171.995 171.675 172.168 171.027C172.565 169.544 172.299 167.745 172.299 166.219C172.3 164.194 173.105 162.252 174.537 160.82C175.969 159.388 177.912 158.583 179.937 158.583" fill="#D1DDFF" fill-opacity="0.15"/>
<path d="M155.521 181.5C155.521 182.328 156.192 183 157.021 183C157.849 183 158.521 182.328 158.521 181.5H155.521ZM164.659 173.862V172.362V173.862ZM169.467 173.731L169.854 175.18L169.856 175.18L169.467 173.731ZM172.168 171.027L173.617 171.416L173.618 171.415L172.168 171.027ZM172.299 166.219L170.799 166.219V166.219H172.299ZM179.937 160.083C180.766 160.083 181.437 159.412 181.437 158.583C181.437 157.755 180.766 157.083 179.937 157.083V160.083ZM157.021 181.5H158.521C158.521 179.872 159.167 178.311 160.318 177.16L159.258 176.099L158.197 175.038C156.483 176.752 155.521 179.076 155.521 181.5H157.021ZM159.258 176.099L160.318 177.16C161.469 176.009 163.031 175.362 164.659 175.362V173.862V172.362C162.235 172.362 159.911 173.325 158.197 175.038L159.258 176.099ZM164.659 173.862V175.362C165.002 175.362 165.369 175.377 165.776 175.396C166.173 175.414 166.611 175.436 167.048 175.445C167.913 175.463 168.904 175.434 169.854 175.18L169.467 173.731L169.079 172.282C168.546 172.425 167.896 172.462 167.11 172.446C166.721 172.438 166.331 172.418 165.914 172.399C165.508 172.38 165.079 172.362 164.659 172.362V173.862ZM169.467 173.731L169.856 175.18C170.758 174.937 171.58 174.462 172.24 173.801L171.179 172.741L170.118 171.68C169.83 171.969 169.471 172.177 169.077 172.283L169.467 173.731ZM171.179 172.741L172.24 173.801C172.9 173.14 173.375 172.318 173.617 171.416L172.168 171.027L170.72 170.639C170.614 171.033 170.407 171.392 170.118 171.68L171.179 172.741ZM172.168 171.027L173.618 171.415C173.871 170.465 173.9 169.474 173.882 168.609C173.873 168.172 173.851 167.733 173.833 167.337C173.814 166.93 173.799 166.562 173.799 166.219H172.299H170.799C170.799 166.639 170.817 167.069 170.836 167.475C170.855 167.891 170.875 168.281 170.883 168.67C170.899 169.457 170.862 170.107 170.719 170.64L172.168 171.027ZM172.299 166.219L173.799 166.22C173.8 164.592 174.446 163.031 175.598 161.881L174.537 160.82L173.477 159.759C171.763 161.472 170.8 163.796 170.799 166.219L172.299 166.219ZM174.537 160.82L175.598 161.881C176.749 160.73 178.31 160.083 179.937 160.083V158.583V157.083C177.514 157.083 175.19 158.046 173.477 159.759L174.537 160.82Z" fill="#D2CEFE" mask="url(#path-27-inside-1_452_7759)"/>
</g>
<path d="M94 131H103.5C107.271 131 109.157 131 110.328 132.172C111.5 133.343 111.5 135.229 111.5 139V163C111.5 166.771 111.5 168.657 112.672 169.828C113.843 171 115.729 171 119.5 171H129" stroke="#D9D5FF" stroke-dasharray="2 2"/>
<path d="M94 235H103.5C107.271 235 109.157 235 110.328 233.828C111.5 232.657 111.5 230.771 111.5 227V203C111.5 199.229 111.5 197.343 112.672 196.172C113.843 195 115.729 195 119.5 195H129" stroke="#D9D5FF" stroke-dasharray="2 2"/>
<path d="M223 195H232.5C236.271 195 238.157 195 239.328 196.172C240.5 197.343 240.5 199.229 240.5 203V227C240.5 230.771 240.5 232.657 241.672 233.828C242.843 235 244.729 235 248.5 235H258" stroke="#D9D5FF" stroke-dasharray="2 2"/>
<path d="M258 131H248.5C244.729 131 242.843 131 241.672 132.172C240.5 133.343 240.5 135.229 240.5 139V163C240.5 166.771 240.5 168.657 239.328 169.828C238.157 171 236.271 171 232.5 171H223" stroke="#D9D5FF" stroke-dasharray="2 2"/>
<path d="M62.7987 111.954L49.6094 118.62C49.6094 118.62 48.9134 118.895 48.3226 120.208C48.0013 120.922 48.001 122.747 48.001 122.747V137.985C48.001 137.985 47.9651 139.223 48.3227 139.889C48.6552 140.509 49.6094 141.159 49.6094 141.159L62.7987 149.413C62.7987 149.413 65.231 151 66.9809 151C68.7306 151 71.4845 149.413 71.4845 149.413L82.4219 144.016C82.4219 144.016 84.2102 143.197 84.6738 142.429C85.0648 141.781 84.9952 139.889 84.9952 139.889V125.604C84.9952 125.604 84.9993 123.635 84.3521 122.43C83.7637 121.335 82.4217 120.208 82.4217 120.208L69.5541 111.954C69.5541 111.954 67.6898 111.044 66.3375 111.002C64.8677 110.955 62.7987 111.954 62.7987 111.954Z" fill="#4538CB" stroke="#C5BFFF"/>
<path d="M67.0005 145.517V132.449C67.0005 132.449 67.0005 131.492 67.3193 130.855C67.638 130.217 68.2755 129.899 68.2755 129.899L80.3878 124.161C80.3878 124.161 81.2999 123.798 81.6628 124.161C82.0257 124.524 81.9815 125.436 81.9815 125.436V138.505C81.9815 138.505 82.0032 139.563 81.6628 140.099C81.329 140.624 80.3878 141.055 80.3878 141.055L68.9131 146.792C68.9131 146.792 67.7483 147.26 67.3193 146.792C66.9724 146.414 67.0005 145.517 67.0005 145.517Z" fill="#F5F4FF" stroke="#CCC7FF"/>
<path d="M289.201 111.954L302.391 118.62C302.391 118.62 303.087 118.895 303.677 120.208C303.999 120.922 303.999 122.747 303.999 122.747V137.985C303.999 137.985 304.035 139.223 303.677 139.889C303.345 140.509 302.391 141.159 302.391 141.159L289.201 149.413C289.201 149.413 286.769 151 285.019 151C283.269 151 280.515 149.413 280.515 149.413L269.578 144.016C269.578 144.016 267.79 143.197 267.326 142.429C266.935 141.781 267.005 139.889 267.005 139.889V125.604C267.005 125.604 267.001 123.635 267.648 122.43C268.236 121.335 269.578 120.208 269.578 120.208L282.446 111.954C282.446 111.954 284.31 111.044 285.662 111.002C287.132 110.955 289.201 111.954 289.201 111.954Z" fill="#4538CB" stroke="#C5BFFF"/>
<path d="M284.999 145.517V132.449C284.999 132.449 284.999 131.492 284.681 130.855C284.362 130.217 283.724 129.899 283.724 129.899L271.612 124.161C271.612 124.161 270.7 123.798 270.337 124.161C269.974 124.524 270.018 125.436 270.018 125.436V138.505C270.018 138.505 269.997 139.563 270.337 140.099C270.671 140.624 271.612 141.055 271.612 141.055L283.087 146.792C283.087 146.792 284.252 147.26 284.681 146.792C285.028 146.414 284.999 145.517 284.999 145.517Z" fill="#F5F4FF" stroke="#CCC7FF"/>
<path d="M286.5 218V218.5H289C289.967 218.5 290.848 218.5 291.655 218.509L291.66 218.009C293.94 218.033 295.635 218.128 296.941 218.486L296.811 218.969C297.58 219.18 298.181 219.483 298.681 219.917L298.889 220.111C299.428 220.65 299.79 221.31 300.031 222.189L300.513 222.058C300.872 223.364 300.966 225.059 300.99 227.339L300.491 227.345C300.5 228.152 300.5 229.033 300.5 230V232.5H301V237.5H300.5V240C300.5 240.967 300.5 241.848 300.491 242.655L300.99 242.66C300.966 244.94 300.871 246.635 300.513 247.941L300.031 247.811C299.82 248.58 299.517 249.181 299.083 249.681L298.889 249.889C298.35 250.428 297.69 250.79 296.811 251.031L296.941 251.513C295.635 251.871 293.94 251.966 291.66 251.99L291.655 251.491C290.848 251.5 289.967 251.5 289 251.5H286.5V252H281.5V251.5H279C278.033 251.5 277.152 251.5 276.345 251.491L276.339 251.99C274.059 251.966 272.364 251.872 271.058 251.513L271.189 251.031C270.31 250.79 269.65 250.428 269.111 249.889L268.917 249.681C268.483 249.181 268.18 248.58 267.969 247.811L267.486 247.941C267.128 246.635 267.033 244.94 267.009 242.66L267.509 242.655L267.5 240V237.5H267V232.5H267.5V230C267.5 229.033 267.5 228.152 267.509 227.345L267.009 227.339C267.033 225.059 267.127 223.364 267.486 222.058L267.969 222.189C268.18 221.42 268.483 220.819 268.917 220.319L269.111 220.111C269.65 219.572 270.31 219.21 271.189 218.969L271.058 218.486C272.364 218.127 274.059 218.033 276.339 218.009L276.345 218.509C277.152 218.5 278.033 218.5 279 218.5H281.5V218H286.5Z" stroke="#BBB4FF" stroke-dasharray="8 8"/>
<path d="M70.5 218V218.5H73C73.9672 218.5 74.8483 218.5 75.6553 218.509L75.6602 218.009C77.9399 218.033 79.6352 218.128 80.9414 218.486L80.8105 218.969C81.58 219.18 82.1812 219.483 82.6807 219.917L82.8887 220.111C83.4278 220.65 83.7895 221.31 84.0312 222.189L84.5127 222.058C84.8716 223.364 84.9656 225.059 84.9902 227.339L84.4912 227.345C84.4999 228.152 84.5 229.033 84.5 230V232.5H85V237.5H84.5V240C84.5 240.967 84.4999 241.848 84.4912 242.655L84.9902 242.66C84.9656 244.94 84.8715 246.635 84.5127 247.941L84.0312 247.811C83.8198 248.58 83.5165 249.181 83.083 249.681L82.8887 249.889C82.3495 250.428 81.6901 250.79 80.8105 251.031L80.9414 251.513C79.6351 251.871 77.94 251.966 75.6602 251.99L75.6553 251.491C74.8483 251.5 73.9672 251.5 73 251.5H70.5V252H65.5V251.5H63C62.0328 251.5 61.1517 251.5 60.3447 251.491L60.3389 251.99C58.059 251.966 56.3638 251.872 55.0576 251.513L55.1895 251.031C54.3099 250.79 53.6505 250.428 53.1113 249.889L52.917 249.681C52.4835 249.181 52.1802 248.58 51.9687 247.811L51.4863 247.941C51.1276 246.635 51.0334 244.94 51.0088 242.66L51.5088 242.655L51.5 240V237.5H51V232.5H51.5V230C51.5 229.033 51.5001 228.152 51.5088 227.345L51.0088 227.339C51.0335 225.059 51.1275 223.364 51.4863 222.058L51.9687 222.189C52.1802 221.42 52.4835 220.819 52.917 220.319L53.1113 220.111C53.6505 219.572 54.3099 219.21 55.1895 218.969L55.0576 218.486C56.3638 218.127 58.0591 218.033 60.3389 218.009L60.3447 218.509C61.1517 218.5 62.0328 218.5 63 218.5H65.5V218H70.5Z" stroke="#BBB4FF" stroke-dasharray="8 8"/>
<line x1="165.5" y1="92" x2="165.5" y2="130" stroke="url(#paint4_linear_452_7759)" stroke-dasharray="2 2"/>
<line x1="185.5" y1="92" x2="185.5" y2="130" stroke="url(#paint5_linear_452_7759)" stroke-dasharray="2 2"/>
<circle cx="261.7" cy="130.7" r="1.7" fill="#C5BFFF"/>
<circle cx="90.7" cy="130.7" r="1.7" fill="#C5BFFF"/>
<circle cx="261.7" cy="234.7" r="1.7" fill="#C5BFFF"/>
<circle cx="90.7" cy="234.7" r="1.7" fill="#C5BFFF"/>
</g>
<defs>
<filter id="filter0_d_452_7759" x="0" y="0" width="352" height="288" filterUnits="userSpaceOnUse" color-interpolation-filters="sRGB">
<feFlood flood-opacity="0" result="BackgroundImageFix"/>
<feColorMatrix in="SourceAlpha" type="matrix" values="0 0 0 0 0 0 0 0 0 0 0 0 0 0 0 0 0 0 127 0" result="hardAlpha"/>
<feMorphology radius="2" operator="erode" in="SourceAlpha" result="effect1_dropShadow_452_7759"/>
<feOffset dy="4"/>
<feGaussianBlur stdDeviation="3"/>
<feComposite in2="hardAlpha" operator="out"/>
<feColorMatrix type="matrix" values="0 0 0 0 0 0 0 0 0 0 0 0 0 0 0 0 0 0 0.11 0"/>
<feBlend mode="normal" in2="BackgroundImageFix" result="effect1_dropShadow_452_7759"/>
<feBlend mode="normal" in="SourceGraphic" in2="effect1_dropShadow_452_7759" result="shape"/>
</filter>
<filter id="filter1_di_452_7759" x="12" y="13" width="328" height="76" filterUnits="userSpaceOnUse" color-interpolation-filters="sRGB">
<feFlood flood-opacity="0" result="BackgroundImageFix"/>
<feColorMatrix in="SourceAlpha" type="matrix" values="0 0 0 0 0 0 0 0 0 0 0 0 0 0 0 0 0 0 127 0" result="hardAlpha"/>
<feOffset dy="1"/>
<feGaussianBlur stdDeviation="2"/>
<feComposite in2="hardAlpha" operator="out"/>
<feColorMatrix type="matrix" values="0 0 0 0 0.560784 0 0 0 0 0.533333 0 0 0 0 0.878431 0 0 0 0.5 0"/>
<feBlend mode="normal" in2="BackgroundImageFix" result="effect1_dropShadow_452_7759"/>
<feBlend mode="normal" in="SourceGraphic" in2="effect1_dropShadow_452_7759" result="shape"/>
<feColorMatrix in="SourceAlpha" type="matrix" values="0 0 0 0 0 0 0 0 0 0 0 0 0 0 0 0 0 0 127 0" result="hardAlpha"/>
<feOffset dx="-2" dy="2"/>
<feGaussianBlur stdDeviation="1.5"/>
<feComposite in2="hardAlpha" operator="arithmetic" k2="-1" k3="1"/>
<feColorMatrix type="matrix" values="0 0 0 0 1 0 0 0 0 1 0 0 0 0 1 0 0 0 0.1 0"/>
<feBlend mode="normal" in2="shape" result="effect2_innerShadow_452_7759"/>
</filter>
<filter id="filter2_d_452_7759" x="125" y="130" width="102" height="102" filterUnits="userSpaceOnUse" color-interpolation-filters="sRGB">
<feFlood flood-opacity="0" result="BackgroundImageFix"/>
<feColorMatrix in="SourceAlpha" type="matrix" values="0 0 0 0 0 0 0 0 0 0 0 0 0 0 0 0 0 0 127 0" result="hardAlpha"/>
<feMorphology radius="2" operator="dilate" in="SourceAlpha" result="effect1_dropShadow_452_7759"/>
<feOffset/>
<feGaussianBlur stdDeviation="2"/>
<feComposite in2="hardAlpha" operator="out"/>
<feColorMatrix type="matrix" values="0 0 0 0 0.560784 0 0 0 0 0.533333 0 0 0 0 0.878431 0 0 0 0.5 0"/>
<feBlend mode="normal" in2="BackgroundImageFix" result="effect1_dropShadow_452_7759"/>
<feBlend mode="normal" in="SourceGraphic" in2="effect1_dropShadow_452_7759" result="shape"/>
</filter>
<linearGradient id="paint0_linear_452_7759" x1="94" y1="33.5" x2="256" y2="33.5" gradientUnits="userSpaceOnUse">
<stop stop-color="#FCFBFF"/>
<stop offset="1" stop-color="#A79FFA"/>
</linearGradient>
<linearGradient id="paint1_linear_452_7759" x1="94" y1="50.5" x2="256" y2="50.5" gradientUnits="userSpaceOnUse">
<stop stop-color="#FCFBFF"/>
<stop offset="1" stop-color="#A79FFA"/>
</linearGradient>
<linearGradient id="paint2_linear_452_7759" x1="94" y1="77.92" x2="165" y2="77.92" gradientUnits="userSpaceOnUse">
<stop offset="0.0690604" stop-color="#FCFBFF"/>
<stop offset="0.998162" stop-color="#A79FFA"/>
</linearGradient>
<linearGradient id="paint3_linear_452_7759" x1="256" y1="77.92" x2="185" y2="77.92" gradientUnits="userSpaceOnUse">
<stop offset="0.0690604" stop-color="#FCFBFF"/>
<stop offset="0.998162" stop-color="#A79FFA"/>
</linearGradient>
<linearGradient id="paint4_linear_452_7759" x1="164.5" y1="92" x2="164.5" y2="130" gradientUnits="userSpaceOnUse">
<stop stop-color="#A79FFA"/>
<stop offset="1" stop-color="#EAE8FF"/>
</linearGradient>
<linearGradient id="paint5_linear_452_7759" x1="184.5" y1="92" x2="184.5" y2="130" gradientUnits="userSpaceOnUse">
<stop stop-color="#A79FFA"/>
<stop offset="1" stop-color="#EAE8FF"/>
</linearGradient>
<clipPath id="clip0_452_7759">
<rect width="30.253" height="43" fill="white" transform="translate(35 28)"/>
</clipPath>
<clipPath id="clip1_452_7759">
<rect width="43.643" height="43" fill="white" transform="translate(280.179 28)"/>
</clipPath>
</defs>
</svg>
