<svg width="26" height="26" viewBox="0 0 26 26" fill="none" xmlns="http://www.w3.org/2000/svg">
<g clip-path="url(#clip0_452_7720)">
<path d="M15.2468 4.20932C16.0541 3.33467 16.4578 2.89734 16.8867 2.64225C17.9216 2.02674 19.196 2.0076 20.2482 2.59176C20.6843 2.83386 21.1003 3.25888 21.9324 4.10891C22.7646 4.95893 23.1806 5.38395 23.4176 5.82942C23.9895 6.90429 23.9707 8.20611 23.3682 9.26334C23.1185 9.7015 22.6904 10.1138 21.8342 10.9385L11.6468 20.7506C10.0243 22.3134 9.21299 23.0948 8.19906 23.4908C7.18512 23.8868 6.07046 23.8577 3.84114 23.7994L3.53782 23.7914C2.85914 23.7737 2.5198 23.7648 2.32254 23.541C2.12529 23.3171 2.15222 22.9714 2.20608 22.2801L2.23532 21.9047C2.38692 19.9589 2.46271 18.986 2.84268 18.1115C3.22264 17.2369 3.87805 16.5268 5.18887 15.1066L15.2468 4.20932Z" stroke="#4538CB" stroke-width="2.5" stroke-linejoin="round"/>
<path d="M14.084 4.3335L21.6673 11.9168" stroke="#4538CB" stroke-width="2.5" stroke-linejoin="round"/>
<path d="M15.167 23.8335L23.8337 23.8335" stroke="#4538CB" stroke-width="2.5" stroke-linecap="round" stroke-linejoin="round"/>
</g>
<defs>
<clipPath id="clip0_452_7720">
<rect width="26" height="26" fill="white"/>
</clipPath>
</defs>
</svg>
