<svg width="24" height="24" viewBox="0 0 24 24" fill="none" xmlns="http://www.w3.org/2000/svg">
<path d="M0.916992 12C0.916992 6.77523 0.916992 4.16286 2.54011 2.53974C4.16323 0.916626 6.77559 0.916626 12.0003 0.916626C17.2251 0.916626 19.8374 0.916626 21.4605 2.53974C23.0837 4.16286 23.0837 6.77523 23.0837 12C23.0837 17.2247 23.0837 19.8371 21.4605 21.4602C19.8374 23.0833 17.2251 23.0833 12.0003 23.0833C6.77559 23.0833 4.16323 23.0833 2.54011 21.4602C0.916992 19.8371 0.916992 17.2247 0.916992 12Z" fill="#ECEBFA" stroke="#4538CB" stroke-width="1.5"/>
<circle cx="17.25" cy="6.75" r="1.75" fill="#ECEBFA" stroke="#4538CB" stroke-width="1.5"/>
<path d="M16.6667 23.6666C15.9439 21.0706 14.2569 18.7457 11.856 17.0565C9.26721 15.235 6.0169 14.271 2.68497 14.3364C2.28934 14.3355 1.89405 14.3481 1.5 14.3742" stroke="#4538CB" stroke-width="1.5" stroke-linejoin="round"/>
<path d="M13.167 19C15.1521 17.4522 17.2906 16.6582 19.4509 16.6667C20.6759 16.6654 21.8951 16.9252 23.0837 17.4386" stroke="#4538CB" stroke-width="1.5" stroke-linejoin="round"/>
</svg>
