<svg width="16" height="16" viewBox="0 0 16 16" fill="none" xmlns="http://www.w3.org/2000/svg">
<g clip-path="url(#clip0_987_4108)">
<path d="M1.66667 8.00008C1.66667 5.01452 1.66667 3.52174 2.59416 2.59424C3.52166 1.66675 5.01444 1.66675 8 1.66675C10.9856 1.66675 12.4783 1.66675 13.4058 2.59424C14.3333 3.52174 14.3333 5.01452 14.3333 8.00008C14.3333 10.9856 14.3333 12.4784 13.4058 13.4059C12.4783 14.3334 10.9856 14.3334 8 14.3334C5.01444 14.3334 3.52166 14.3334 2.59416 13.4059C1.66667 12.4784 1.66667 10.9856 1.66667 8.00008Z" stroke="#191919" stroke-width="1.5" stroke-linecap="round" stroke-linejoin="round"/>
<path d="M14.3333 9H11.0496C10.4882 9 10.047 9.46906 9.79964 9.96482C9.53084 10.5034 8.99258 11 8 11C7.00742 11 6.46915 10.5034 6.20036 9.96482C5.95295 9.46906 5.51185 9 4.95044 9H1.66667" stroke="#191919" stroke-width="1.5" stroke-linejoin="round"/>
</g>
<defs>
<clipPath id="clip0_987_4108">
<rect width="16" height="16" fill="white"/>
</clipPath>
</defs>
</svg>
