<svg width="26" height="26" viewBox="0 0 26 26" fill="none" xmlns="http://www.w3.org/2000/svg">
<path d="M9.20898 15.7083H16.7923M9.20898 10.2916H13.0007" stroke="#4538CB" stroke-width="2.5" stroke-linecap="round" stroke-linejoin="round"/>
<path d="M15.3518 22.6313C19.8834 22.3301 23.493 18.6692 23.7901 14.0734C23.8482 13.174 23.8482 12.2426 23.7901 11.3432C23.493 6.74733 19.8834 3.08648 15.3518 2.78525C13.8058 2.68248 12.1917 2.68269 10.6488 2.78525C6.11724 3.08648 2.5076 6.74733 2.21059 11.3432C2.15246 12.2426 2.15246 13.174 2.21059 14.0734C2.31876 15.7472 3.05904 17.2971 3.93056 18.6057C4.43658 19.5219 4.10263 20.6654 3.57556 21.6642C3.19552 22.3844 3.0055 22.7445 3.15807 23.0046C3.31064 23.2647 3.65144 23.273 4.33304 23.2896C5.68096 23.3224 6.5899 22.9403 7.31139 22.4083C7.7206 22.1065 7.9252 21.9556 8.06622 21.9383C8.20723 21.921 8.48474 22.0353 9.03967 22.2638C9.53843 22.4692 10.1175 22.596 10.6488 22.6313C12.1917 22.7339 13.8058 22.7341 15.3518 22.6313Z" stroke="#4538CB" stroke-width="2.5" stroke-linejoin="round"/>
</svg>
