<svg width="26" height="26" viewBox="0 0 26 26" fill="none" xmlns="http://www.w3.org/2000/svg">
<path d="M22.688 18.2383C21.9769 13.9604 19.7634 10.7749 17.8392 8.90384C17.2793 8.35938 16.9993 8.08714 16.3808 7.8352C15.7624 7.58325 15.2308 7.58325 14.1676 7.58325H11.8324C10.7692 7.58325 10.2376 7.58325 9.61915 7.8352C9.0007 8.08714 8.72073 8.35938 8.16079 8.90384C6.23655 10.7749 4.02307 13.9604 3.31204 18.2383C2.78301 21.4211 5.71921 23.8333 9.00068 23.8333H16.9993C20.2808 23.8333 23.217 21.4211 22.688 18.2383Z" stroke="#4538CB" stroke-width="2.5" stroke-linecap="round"/>
<path d="M14.1555 11.9166C14.1555 11.2263 13.5958 10.6666 12.9055 10.6666C12.2151 10.6666 11.6555 11.2263 11.6555 11.9166L14.1555 11.9166ZM11.6555 19.5C11.6555 20.1903 12.2151 20.75 12.9055 20.75C13.5958 20.75 14.1555 20.1903 14.1555 19.5H11.6555ZM13.7192 14.298C14.1369 14.8477 14.9211 14.9545 15.4707 14.5368C16.0203 14.119 16.1272 13.3348 15.7095 12.7852L13.7192 14.298ZM11.9342 17.118C11.4198 16.6576 10.6296 16.7014 10.1692 17.2159C9.70879 17.7303 9.75259 18.5205 10.267 18.9809L11.9342 17.118ZM12.9055 15.5992V14.3492C12.5883 14.3492 12.3629 14.3243 12.2082 14.2911C12.0532 14.2578 12.0011 14.223 12.0024 14.2239C12.0148 14.2323 12.0513 14.2652 12.0757 14.3169C12.0954 14.3588 12.083 14.3624 12.083 14.2885H10.833H9.58301C9.58301 15.0305 9.85832 15.7939 10.6056 16.2973C11.2472 16.7295 12.0713 16.8492 12.9055 16.8492V15.5992ZM10.833 14.2885H12.083C12.083 14.3568 12.0428 14.3159 12.1822 14.2131C12.3211 14.1106 12.5728 14.0094 12.9055 14.0094V12.7594V11.5094C12.0936 11.5094 11.309 11.7505 10.6979 12.2014C10.0871 12.652 9.58301 13.3757 9.58301 14.2885H10.833ZM15.1663 17.1284H13.9163C13.9163 17.2012 13.9017 17.2106 13.9112 17.1945C13.9186 17.1818 13.9155 17.198 13.8605 17.231C13.724 17.313 13.4162 17.4075 12.9055 17.4075V18.6575V19.9075C13.6434 19.9075 14.466 19.7836 15.1478 19.3741C15.9054 18.919 16.4163 18.1447 16.4163 17.1284H15.1663ZM12.9055 15.5992V16.8492C13.2269 16.8492 13.4676 16.873 13.6432 16.909C13.8196 16.9452 13.8965 16.987 13.9183 17.0012C13.9284 17.0078 13.9109 16.9959 13.9 16.9734C13.8937 16.9604 13.9163 16.9971 13.9163 17.1284H15.1663H16.4163C16.4163 16.2497 16.0838 15.4289 15.284 14.9072C14.5966 14.4589 13.7296 14.3492 12.9055 14.3492V15.5992ZM12.9055 12.7594L14.1555 12.7594L14.1555 11.9166L12.9055 11.9166L11.6555 11.9166L11.6555 12.7594L12.9055 12.7594ZM12.9055 18.6575H11.6555V19.5H12.9055H14.1555V18.6575H12.9055ZM12.9055 12.7594V14.0094C13.3785 14.0094 13.6487 14.2053 13.7192 14.298L14.7143 13.5416L15.7095 12.7852C15.0703 11.9444 13.9863 11.5094 12.9055 11.5094V12.7594ZM12.9055 18.6575V17.4075C12.4135 17.4075 12.0752 17.2442 11.9342 17.118L11.1006 18.0495L10.267 18.9809C10.9515 19.5935 11.9229 19.9075 12.9055 19.9075V18.6575Z" fill="#4538CB"/>
<path d="M7.86101 4.81307C7.63751 4.48776 7.31356 4.0462 7.98275 3.94551C8.67059 3.84201 9.38482 4.31286 10.0839 4.30319C10.7164 4.29443 11.0386 4.01392 11.3843 3.6134C11.7484 3.19165 12.312 2.16663 12.9997 2.16663C13.6873 2.16663 14.251 3.19165 14.615 3.6134C14.9607 4.01392 15.2829 4.29443 15.9154 4.30319C16.6145 4.31286 17.3288 3.84201 18.0166 3.94551C18.6858 4.0462 18.3618 4.48776 18.1383 4.81307L17.1278 6.28399C16.6955 6.91321 16.4793 7.22782 16.027 7.40556C15.5747 7.58329 14.9901 7.58329 13.8211 7.58329H12.1783C11.0092 7.58329 10.4247 7.58329 9.97236 7.40556C9.52003 7.22782 9.30388 6.91321 8.87158 6.28399L7.86101 4.81307Z" stroke="#4538CB" stroke-width="2.5"/>
</svg>
