<svg width="12" height="12" viewBox="0 0 12 12" fill="none" xmlns="http://www.w3.org/2000/svg">
<path d="M6.5 1H6.63636C8.26697 1 9.08227 1 9.64847 1.39892C9.81069 1.51321 9.95471 1.64876 10.0761 1.80144C10.5 2.33434 10.5 3.10168 10.5 4.63636V5.90909C10.5 7.39068 10.5 8.13147 10.2655 8.72312C9.88859 9.67429 9.09143 10.4246 8.08082 10.7793C7.45219 11 6.66509 11 5.09091 11C4.19137 11 3.74161 11 3.38239 10.8739C2.8049 10.6712 2.34938 10.2425 2.13398 9.69893C2 9.36084 2 8.93753 2 8.09091V6" stroke="white" stroke-width="1.5" stroke-linecap="round" stroke-linejoin="round"/>
<path d="M10.5 6C10.5 6.92047 9.75381 7.66667 8.83333 7.66667C8.50044 7.66667 8.10798 7.60834 7.78432 7.69506C7.49674 7.77212 7.27212 7.99674 7.19506 8.28432C7.10834 8.60798 7.16667 9.00044 7.16667 9.33333C7.16667 10.2538 6.42047 11 5.5 11" stroke="white" stroke-width="1.5" stroke-linecap="round" stroke-linejoin="round"/>
<path d="M5.5 3L1.5 3M3.5 1V5" stroke="white" stroke-width="1.5" stroke-linecap="round"/>
</svg>
