<svg width="16" height="16" viewBox="0 0 16 16" fill="none" xmlns="http://www.w3.org/2000/svg">
<g clip-path="url(#clip0_987_4997)">
<path d="M14 5.00004L11.3333 6.33337M11.3333 6.33337L11 6.50004L8 8.00004M11.3333 6.33337V8.66671M11.3333 6.33337L5 3.00004M8 8.00004L2 5.00004M8 8.00004V14.3334M10.3853 2.25471L11.7187 2.95471C13.1527 3.70737 13.87 4.08337 14.2687 4.76004C14.6667 5.43604 14.6667 6.27804 14.6667 7.96137V8.03937C14.6667 9.72204 14.6667 10.564 14.2687 11.24C13.87 11.9167 13.1527 12.2934 11.7187 13.046L10.3853 13.7454C9.21467 14.3594 8.62933 14.6667 8 14.6667C7.37067 14.6667 6.78533 14.36 5.61467 13.7454L4.28133 13.0454C2.84733 12.2927 2.13 11.9167 1.73133 11.24C1.33333 10.564 1.33333 9.72204 1.33333 8.04004V7.96204C1.33333 6.27871 1.33333 5.43671 1.73133 4.76071C2.13 4.08404 2.84733 3.70737 4.28133 2.95537L5.61467 2.25537C6.78533 1.64071 7.37067 1.33337 8 1.33337C8.62933 1.33337 9.21467 1.64004 10.3853 2.25471Z" stroke="#191919" stroke-width="1.5" stroke-linecap="round"/>
</g>
<defs>
<clipPath id="clip0_987_4997">
<rect width="16" height="16" fill="white"/>
</clipPath>
</defs>
</svg>
