<svg width="16" height="16" viewBox="0 0 16 16" fill="none" xmlns="http://www.w3.org/2000/svg">
<path fill-rule="evenodd" clip-rule="evenodd" d="M9.38149 1.9246L12.5722 3.76593C12.9921 4.00824 13.3408 4.3569 13.5832 4.77681C13.8256 5.19673 13.9531 5.67309 13.9528 6.15793V9.84193C13.9528 10.8286 13.4262 11.7406 12.5722 12.2339L9.38149 14.0753C8.96176 14.3178 8.48557 14.4454 8.00083 14.4454C7.51609 14.4454 7.03989 14.3178 6.62016 14.0753L3.4295 12.2339C3.00954 11.9916 2.66082 11.643 2.41844 11.2231C2.17607 10.8031 2.04859 10.3268 2.04883 9.84193V6.15793C2.04883 5.17127 2.5755 4.25927 3.4295 3.76593L6.62083 1.9246C7.04056 1.68211 7.51675 1.55444 8.00149 1.55444C8.48624 1.55444 8.96176 1.68211 9.38149 1.9246ZM8.71483 3.07926C8.49779 2.9538 8.25152 2.88774 8.00083 2.88774C7.75013 2.88774 7.50387 2.9538 7.28683 3.07926L4.09616 4.91993C3.87889 5.04522 3.69849 5.22556 3.57314 5.44279C3.44778 5.66002 3.38191 5.90646 3.38216 6.15727V9.84127C3.38216 10.3513 3.65416 10.8233 4.09616 11.0786L7.28683 12.9199C7.50387 13.0454 7.75013 13.1115 8.00083 13.1115C8.25152 13.1115 8.49779 13.0454 8.71483 12.9199L11.9055 11.0786C12.1228 10.9533 12.3032 10.773 12.4285 10.5557C12.5539 10.3385 12.6197 10.0921 12.6195 9.84127V6.15793C12.6195 5.64793 12.3475 5.17593 11.9055 4.9206L8.71416 3.07993L8.71483 3.07926Z" fill="#191919"/>
<path fill-rule="evenodd" clip-rule="evenodd" d="M7.06419 7.89591L3.13086 5.92924L3.72753 4.73724L7.66019 6.70324C7.87486 6.80991 8.12686 6.80991 8.34153 6.70324L12.2742 4.73657L12.8709 5.92991L8.93753 7.89591C8.64672 8.0414 8.32603 8.11715 8.00086 8.11715C7.67569 8.11715 7.35499 8.0414 7.06419 7.89591Z" fill="#191919"/>
<path fill-rule="evenodd" clip-rule="evenodd" d="M8.66747 7.61866V13.714H7.33414V7.61866H8.66747ZM5.1188 3.51133C5.15797 3.43301 5.21218 3.36316 5.27834 3.3058C5.3445 3.24843 5.42132 3.20466 5.5044 3.17699C5.58748 3.14931 5.6752 3.13828 5.76255 3.14451C5.8499 3.15075 5.93516 3.17413 6.01347 3.21333L10.5848 5.49866C10.743 5.57778 10.8634 5.71653 10.9193 5.88437C10.9753 6.05222 10.9623 6.23542 10.8831 6.39366C10.804 6.55191 10.6653 6.67224 10.4974 6.72819C10.3296 6.78414 10.1464 6.77112 9.98813 6.692L5.4168 4.40533C5.25897 4.32623 5.13895 4.18775 5.08309 4.02028C5.02722 3.85281 5.04007 3.66934 5.1188 3.51133Z" fill="#191919"/>
</svg>
