<svg width="12" height="13" viewBox="0 0 12 13" fill="none" xmlns="http://www.w3.org/2000/svg">
<path fill-rule="evenodd" clip-rule="evenodd" d="M5.125 0.166626C4.33434 0.166693 3.55517 0.355838 2.85248 0.718281C2.14979 1.08072 1.54397 1.60595 1.08555 2.25015C0.627133 2.89435 0.329418 3.63883 0.217242 4.42148C0.105066 5.20414 0.181682 6.00228 0.440699 6.7493C0.699716 7.49632 1.13362 8.17057 1.70622 8.7158C2.27881 9.26102 2.97349 9.66141 3.73229 9.88356C4.4911 10.1057 5.29203 10.1432 6.06826 9.99283C6.84449 9.84248 7.57351 9.50869 8.1945 9.01929L10.3248 11.1496C10.4348 11.2559 10.5822 11.3147 10.7351 11.3134C10.8881 11.312 11.0344 11.2507 11.1426 11.1425C11.2507 11.0344 11.3121 10.8881 11.3134 10.7351C11.3147 10.5822 11.2559 10.4348 11.1497 10.3248L9.01933 8.19446C9.59566 7.46332 9.95451 6.58469 10.0548 5.65913C10.1551 4.73357 9.99279 3.79847 9.58646 2.96085C9.18012 2.12322 8.54618 1.41692 7.75717 0.922761C6.96816 0.428605 6.05597 0.166563 5.125 0.166626ZM1.33333 5.12496C1.33333 4.11935 1.73281 3.15492 2.44388 2.44385C3.15496 1.73277 4.11938 1.33329 5.125 1.33329C6.13061 1.33329 7.09503 1.73277 7.80611 2.44385C8.51718 3.15492 8.91666 4.11935 8.91666 5.12496C8.91666 6.13057 8.51718 7.095 7.80611 7.80607C7.09503 8.51715 6.13061 8.91663 5.125 8.91663C4.11938 8.91663 3.15496 8.51715 2.44388 7.80607C1.73281 7.095 1.33333 6.13057 1.33333 5.12496Z" fill="#7D7D7D"/>
</svg>
