<svg width="16" height="16" viewBox="0 0 16 16" fill="none" xmlns="http://www.w3.org/2000/svg">
<g clip-path="url(#clip0_987_5183)">
<path d="M14.2117 4.76077L13.8826 4.1897C13.6337 3.75781 13.5093 3.54187 13.2976 3.45576C13.0859 3.36965 12.8464 3.4376 12.3675 3.57349L11.554 3.80262C11.2483 3.87313 10.9275 3.83313 10.6484 3.6897L10.4238 3.56012C10.1844 3.40679 10.0003 3.18073 9.89834 2.915L9.67571 2.25008C9.52932 1.81006 9.45613 1.59006 9.28188 1.46422C9.10763 1.33838 8.87618 1.33838 8.41327 1.33838H7.67009C7.20718 1.33838 6.97573 1.33838 6.80148 1.46422C6.62723 1.59006 6.55404 1.81006 6.40766 2.25008L6.18502 2.915C6.0831 3.18073 5.89897 3.40679 5.65958 3.56012L5.43499 3.6897C5.15582 3.83313 4.83506 3.87313 4.52932 3.80262L3.71583 3.57349C3.23694 3.4376 2.9975 3.36965 2.78578 3.45576C2.57406 3.54187 2.44963 3.75781 2.20077 4.1897L1.87171 4.76077C1.63844 5.1656 1.5218 5.36802 1.54444 5.5835C1.56708 5.79898 1.72322 5.97262 2.03551 6.31992L2.72287 7.08839C2.89087 7.30107 3.01014 7.67171 3.01014 8.00494C3.01014 8.33838 2.8909 8.70892 2.72288 8.92164L2.03551 9.69012C1.72322 10.0374 1.56708 10.2111 1.54444 10.4265C1.5218 10.642 1.63844 10.8444 1.87171 11.2493L2.20076 11.8203C2.44962 12.2522 2.57406 12.4682 2.78578 12.5543C2.9975 12.6404 3.23695 12.5724 3.71584 12.4365L4.52929 12.2074C4.83508 12.1369 5.15591 12.1769 5.43511 12.3204L5.65966 12.45C5.899 12.6033 6.08309 12.8293 6.185 13.095L6.40766 13.76C6.55404 14.2 6.62723 14.42 6.80148 14.5459C6.97573 14.6717 7.20718 14.6717 7.67009 14.6717H8.41327C8.87618 14.6717 9.10763 14.6717 9.28188 14.5459C9.45613 14.42 9.52932 14.2 9.67571 13.76L9.89837 13.095C10.0003 12.8293 10.1844 12.6033 10.4237 12.45L10.6483 12.3204C10.9275 12.1769 11.2483 12.1369 11.5541 12.2074L12.3675 12.4365C12.8464 12.5724 13.0859 12.6404 13.2976 12.5543C13.5093 12.4682 13.6337 12.2522 13.8826 11.8203L13.8826 11.8203L14.2117 11.2493C14.4449 10.8444 14.5616 10.642 14.5389 10.4265C14.5163 10.2111 14.3601 10.0374 14.0479 9.69012L13.3605 8.92164C13.1925 8.70892 13.0732 8.33838 13.0732 8.00494C13.0732 7.67171 13.1925 7.30107 13.3605 7.08839L14.0479 6.31992C14.3601 5.97262 14.5163 5.79898 14.5389 5.5835C14.5616 5.36802 14.4449 5.1656 14.2117 4.76077Z" stroke="#191919" stroke-width="1.5" stroke-linecap="round"/>
<path d="M10.3464 7.99984C10.3464 9.2885 9.30169 10.3332 8.01302 10.3332C6.72436 10.3332 5.67969 9.2885 5.67969 7.99984C5.67969 6.71117 6.72436 5.6665 8.01302 5.6665C9.30169 5.6665 10.3464 6.71117 10.3464 7.99984Z" stroke="#191919" stroke-width="1.5"/>
</g>
<defs>
<clipPath id="clip0_987_5183">
<rect width="16" height="16" fill="white"/>
</clipPath>
</defs>
</svg>
