<svg width="101" height="42" viewBox="0 0 101 42" fill="none" xmlns="http://www.w3.org/2000/svg">
<g clip-path="url(#clip0_670_6878)">
<path d="M100.494 21.6045C100.494 14.4588 97.0325 8.82039 90.4173 8.82039C83.7739 8.82039 79.7544 14.459 79.7544 21.5487C79.7544 29.9503 84.4998 34.1931 91.3103 34.1931C94.632 34.1931 97.1442 33.4395 99.0422 32.3789V26.7962C97.1444 27.7453 94.9671 28.3316 92.2037 28.3316C89.4961 28.3316 87.0956 27.3824 86.7887 24.0888H100.438C100.438 23.7257 100.494 22.2743 100.494 21.6045ZM86.7048 18.9528C86.7048 15.7987 88.631 14.4867 90.3895 14.4867C92.092 14.4867 93.9065 15.7987 93.9065 18.9528H86.7048ZM68.9805 8.82039C66.2448 8.82039 64.4863 10.1043 63.5095 10.9977L63.1464 9.26708H57.0057V41.8132L63.9838 40.3339L64.0119 32.4346C65.0167 33.1604 66.496 34.1931 68.9524 34.1931C73.9488 34.1931 78.4986 30.1737 78.4986 21.3254C78.4707 13.2306 73.865 8.82039 68.9803 8.82039M67.3054 28.0523C65.6585 28.0523 64.6813 27.4662 64.0117 26.7405L63.9836 16.3847C64.7094 15.5753 65.7143 15.0172 67.3054 15.0172C69.8454 15.0172 71.6039 17.8641 71.6039 21.5207C71.6039 25.261 69.8732 28.0523 67.3054 28.0523ZM47.4036 7.17356L54.4098 5.66627V0L47.4036 1.47942V7.17356ZM47.4036 9.29495H54.4098V33.7185H47.4036V9.29495ZM39.8953 11.3604L39.4486 9.29495H33.4194V33.7185H40.3977V17.1664C42.0443 15.0172 44.8357 15.4079 45.7011 15.7149V9.29495C44.8079 8.95994 41.5421 8.34583 39.8953 11.3604ZM25.9387 3.23793L19.128 4.68928L19.1001 27.0474C19.1001 31.1787 22.1985 34.221 26.3296 34.221C28.6184 34.221 30.2931 33.8023 31.2142 33.2999V27.6336C30.3212 27.9965 25.9108 29.2805 25.9108 25.1494V15.2403H31.2142V9.29495H25.9108L25.9387 3.23793ZM7.0697 16.3847C7.0697 15.2962 7.96289 14.8774 9.4425 14.8774C11.5637 14.8774 14.2433 15.5196 16.3647 16.664V10.1043C14.048 9.18328 11.7592 8.82039 9.4425 8.82039C3.77604 8.82039 0.0078125 11.7792 0.0078125 16.7199C0.0078125 24.4236 10.6146 23.1956 10.6146 26.5173C10.6146 27.8011 9.49824 28.2199 7.93502 28.2199C5.61835 28.2199 2.6595 27.2708 0.314766 25.9868V32.6301C2.91072 33.7466 5.53454 34.221 7.93502 34.221C13.7408 34.221 17.7324 31.3461 17.7324 26.3497C17.7045 18.0317 7.0697 19.511 7.0697 16.3847Z" fill="#635BFF"/>
</g>
<defs>
<clipPath id="clip0_670_6878">
<rect width="100.5" height="42" fill="white"/>
</clipPath>
</defs>
</svg>
