<svg width="60" height="60" viewBox="0 0 60 60" fill="none" xmlns="http://www.w3.org/2000/svg">
<g filter="url(#filter0_di_670_7314)">
<path d="M5 30C5 16.1929 16.1929 5 30 5C43.8071 5 55 16.1929 55 30C55 43.8071 43.8071 55 30 55C16.1929 55 5 43.8071 5 30Z" fill="#2ECC71"/>
<path d="M30 5.5C43.531 5.5 54.5 16.469 54.5 30C54.5 43.531 43.531 54.5 30 54.5C16.469 54.5 5.5 43.531 5.5 30C5.5 16.469 16.469 5.5 30 5.5Z" stroke="url(#paint0_linear_670_7314)"/>
<path d="M39.8606 23.3918C40.2875 24.4963 39.6888 25.2526 38.5301 25.9975C37.5951 26.5986 36.4039 27.2498 35.1417 28.363C33.9044 29.4543 32.6968 30.7687 31.6237 32.0625C30.5549 33.351 29.6465 34.586 29.0046 35.5005C28.5898 36.0914 28.011 36.9729 28.011 36.9729C27.6028 37.6187 26.8689 38.0096 26.0821 37.9998C25.295 37.99 24.5721 37.5812 24.1816 36.9251C23.1833 35.248 22.413 34.5857 22.0589 34.3478C21.1116 33.7112 20 33.6171 20 32.1335C20 30.9554 20.9949 30.0003 22.2222 30.0003C23.0886 30.0323 23.894 30.373 24.6076 30.8526C25.0637 31.1591 25.5469 31.5645 26.0495 32.0981C26.6393 31.2936 27.3502 30.3653 28.147 29.4047C29.3042 28.0097 30.6701 26.5131 32.1349 25.2212C33.5748 23.9511 35.2396 22.7623 37.0042 22.1338C38.1549 21.724 39.4337 22.2872 39.8606 23.3918Z" fill="white" stroke="white" stroke-width="1.5" stroke-linecap="round" stroke-linejoin="round"/>
</g>
<defs>
<filter id="filter0_di_670_7314" x="0.8" y="0.8" width="58.4" height="58.4" filterUnits="userSpaceOnUse" color-interpolation-filters="sRGB">
<feFlood flood-opacity="0" result="BackgroundImageFix"/>
<feColorMatrix in="SourceAlpha" type="matrix" values="0 0 0 0 0 0 0 0 0 0 0 0 0 0 0 0 0 0 127 0" result="hardAlpha"/>
<feOffset/>
<feGaussianBlur stdDeviation="2.1"/>
<feComposite in2="hardAlpha" operator="out"/>
<feColorMatrix type="matrix" values="0 0 0 0 0.180392 0 0 0 0 0.8 0 0 0 0 0.443137 0 0 0 0.24 0"/>
<feBlend mode="normal" in2="BackgroundImageFix" result="effect1_dropShadow_670_7314"/>
<feBlend mode="normal" in="SourceGraphic" in2="effect1_dropShadow_670_7314" result="shape"/>
<feColorMatrix in="SourceAlpha" type="matrix" values="0 0 0 0 0 0 0 0 0 0 0 0 0 0 0 0 0 0 127 0" result="hardAlpha"/>
<feOffset dy="-2"/>
<feGaussianBlur stdDeviation="0.4"/>
<feComposite in2="hardAlpha" operator="arithmetic" k2="-1" k3="1"/>
<feColorMatrix type="matrix" values="0 0 0 0 0.12426 0 0 0 0 0.615385 0 0 0 0 0.332522 0 0 0 0.5 0"/>
<feBlend mode="normal" in2="shape" result="effect2_innerShadow_670_7314"/>
</filter>
<linearGradient id="paint0_linear_670_7314" x1="30" y1="5" x2="30" y2="55" gradientUnits="userSpaceOnUse">
<stop stop-color="#E3FFE6"/>
<stop offset="1" stop-color="#BEFFC8"/>
</linearGradient>
</defs>
</svg>
