<svg width="352" height="288" viewBox="0 0 352 288" fill="none" xmlns="http://www.w3.org/2000/svg">
<g filter="url(#filter0_d_452_7741)">
<rect x="4" width="344" height="280" rx="30" fill="white"/>
<rect x="4.5" y="0.5" width="343" height="279" rx="29.5" stroke="#EAEAEA"/>
<g filter="url(#filter1_di_452_7741)">
<path d="M19 39C19 26.2975 29.2975 16 42 16H256C268.703 16 279 26.2975 279 39C279 51.7025 268.703 62 256 62H42C29.2974 62 19 51.7025 19 39Z" fill="#FEFEFF"/>
<path d="M42 19.75H256C266.631 19.75 275.25 28.3685 275.25 39C275.25 49.6315 266.631 58.25 256 58.25H42C31.3685 58.25 22.75 49.6315 22.75 39C22.75 28.3685 31.3685 19.75 42 19.75Z" fill="#FEFEFF"/>
<path d="M42 19.75H256C266.631 19.75 275.25 28.3685 275.25 39C275.25 49.6315 266.631 58.25 256 58.25H42C31.3685 58.25 22.75 49.6315 22.75 39C22.75 28.3685 31.3685 19.75 42 19.75Z" stroke="#F1F1F1" stroke-width="1.5"/>
<path d="M98.4744 34.2727H99.7955L98.8452 40.0128C98.7457 40.6236 98.5128 41.1648 98.1463 41.6364C97.7798 42.1051 97.3139 42.4744 96.7486 42.7443C96.1832 43.0114 95.5526 43.1449 94.8565 43.1449C94.1577 43.1449 93.571 43.0114 93.0966 42.7443C92.6222 42.4744 92.2798 42.1051 92.0696 41.6364C91.8622 41.1648 91.8097 40.6236 91.9119 40.0128L92.8622 34.2727H94.179L93.2457 39.9062C93.1832 40.3011 93.2131 40.652 93.3352 40.9588C93.4602 41.2656 93.6676 41.5071 93.9574 41.6832C94.25 41.8565 94.6179 41.9432 95.0611 41.9432C95.5043 41.9432 95.9006 41.8565 96.25 41.6832C96.6023 41.5071 96.8892 41.2656 97.1108 40.9588C97.3352 40.652 97.4787 40.3011 97.5412 39.9062L98.4744 34.2727ZM99.6939 45.4545L101.202 36.4545H102.447L102.272 37.5156H102.379C102.475 37.3793 102.606 37.2216 102.771 37.0426C102.938 36.8636 103.158 36.7074 103.431 36.5739C103.704 36.4375 104.043 36.3693 104.45 36.3693C104.978 36.3693 105.425 36.5028 105.792 36.7699C106.158 37.0369 106.42 37.4219 106.576 37.9247C106.732 38.4276 106.752 39.0327 106.636 39.7401C106.519 40.4474 106.3 41.054 105.979 41.5597C105.658 42.0625 105.269 42.4503 104.812 42.723C104.357 42.9929 103.864 43.1278 103.333 43.1278C102.935 43.1278 102.621 43.0611 102.391 42.9276C102.164 42.794 101.995 42.6378 101.884 42.4588C101.773 42.2798 101.69 42.1207 101.633 41.9815H101.556L100.977 45.4545H99.6939ZM101.906 39.7273C101.832 40.1875 101.832 40.5909 101.906 40.9375C101.979 41.2841 102.127 41.5554 102.349 41.7514C102.573 41.9446 102.869 42.0412 103.235 42.0412C103.616 42.0412 103.95 41.9403 104.237 41.7386C104.523 41.5341 104.761 41.2571 104.948 40.9077C105.139 40.5582 105.271 40.1648 105.344 39.7273C105.415 39.2955 105.414 38.9077 105.34 38.5639C105.269 38.2202 105.123 37.9489 104.901 37.75C104.68 37.5511 104.377 37.4517 103.994 37.4517C103.621 37.4517 103.292 37.5469 103.005 37.7372C102.721 37.9276 102.485 38.1932 102.298 38.5341C102.11 38.875 101.979 39.2727 101.906 39.7273ZM110.18 34.2727L108.731 43H107.457L108.906 34.2727H110.18ZM113.172 43.1321C112.55 43.1321 112.03 42.9901 111.612 42.706C111.195 42.419 110.901 42.0185 110.73 41.5043C110.563 40.9872 110.534 40.3864 110.645 39.7017C110.753 39.0312 110.97 38.446 111.297 37.946C111.626 37.446 112.038 37.0582 112.533 36.7827C113.03 36.5071 113.582 36.3693 114.19 36.3693C114.813 36.3693 115.331 36.5128 115.746 36.7997C116.163 37.0866 116.457 37.4886 116.628 38.0057C116.798 38.5227 116.828 39.125 116.717 39.8125C116.609 40.4773 116.389 41.0597 116.057 41.5597C115.727 42.0568 115.315 42.4432 114.821 42.7188C114.327 42.9943 113.777 43.1321 113.172 43.1321ZM113.244 42.0625C113.653 42.0625 114.01 41.9545 114.314 41.7386C114.621 41.5227 114.871 41.2358 115.064 40.8778C115.257 40.5199 115.389 40.1278 115.46 39.7017C115.526 39.2898 115.524 38.9134 115.456 38.5724C115.391 38.2287 115.249 37.9531 115.03 37.7457C114.811 37.5384 114.507 37.4347 114.118 37.4347C113.709 37.4347 113.349 37.544 113.04 37.7628C112.733 37.9787 112.483 38.267 112.29 38.6278C112.099 38.9886 111.97 39.3821 111.902 39.8082C111.837 40.2173 111.837 40.5938 111.902 40.9375C111.967 41.2784 112.109 41.5511 112.328 41.7557C112.547 41.9602 112.852 42.0625 113.244 42.0625ZM119.443 43.1449C119.028 43.1449 118.666 43.0682 118.357 42.9148C118.047 42.7585 117.818 42.5327 117.671 42.2372C117.523 41.9418 117.484 41.5795 117.555 41.1506C117.618 40.7812 117.74 40.4773 117.922 40.2386C118.107 40 118.331 39.8111 118.595 39.6719C118.859 39.5298 119.146 39.4233 119.456 39.3523C119.766 39.2812 120.078 39.2287 120.394 39.1946C120.791 39.1491 121.114 39.1108 121.361 39.0795C121.611 39.0483 121.798 39 121.923 38.9347C122.048 38.8665 122.124 38.7557 122.149 38.6023V38.5724C122.209 38.2031 122.155 37.9162 121.987 37.7116C121.823 37.5043 121.536 37.4006 121.126 37.4006C120.7 37.4006 120.342 37.4943 120.053 37.6818C119.766 37.8693 119.554 38.0795 119.418 38.3125L118.276 38.0398C118.48 37.642 118.74 37.321 119.055 37.0767C119.374 36.8295 119.722 36.6506 120.099 36.5398C120.477 36.4261 120.864 36.3693 121.259 36.3693C121.52 36.3693 121.791 36.4006 122.073 36.4631C122.354 36.5227 122.609 36.6335 122.84 36.7955C123.073 36.9574 123.246 37.1889 123.359 37.4901C123.473 37.7884 123.49 38.1761 123.411 38.6534L122.69 43H121.446L121.599 42.1051H121.548C121.44 42.2699 121.29 42.4318 121.097 42.5909C120.906 42.75 120.673 42.8821 120.398 42.9872C120.122 43.0923 119.804 43.1449 119.443 43.1449ZM119.878 42.1222C120.233 42.1222 120.547 42.0526 120.82 41.9134C121.095 41.7741 121.318 41.5923 121.489 41.3679C121.659 41.1406 121.766 40.8977 121.808 40.6392L121.949 39.7955C121.895 39.8409 121.8 39.8821 121.663 39.919C121.53 39.956 121.379 39.9886 121.212 40.017C121.044 40.0455 120.879 40.0696 120.717 40.0895C120.558 40.1094 120.426 40.1278 120.321 40.1449C120.071 40.1761 119.837 40.2287 119.618 40.3026C119.402 40.3764 119.222 40.483 119.077 40.6222C118.932 40.7585 118.841 40.9403 118.804 41.1676C118.753 41.483 118.828 41.7216 119.03 41.8835C119.234 42.0426 119.517 42.1222 119.878 42.1222ZM126.769 43.1278C126.238 43.1278 125.788 42.9929 125.418 42.723C125.052 42.4503 124.792 42.0625 124.639 41.5597C124.488 41.054 124.471 40.4474 124.587 39.7401C124.707 39.0327 124.927 38.4276 125.248 37.9247C125.569 37.4219 125.958 37.0369 126.416 36.7699C126.873 36.5028 127.366 36.3693 127.894 36.3693C128.3 36.3693 128.616 36.4375 128.84 36.5739C129.068 36.7074 129.235 36.8636 129.343 37.0426C129.451 37.2216 129.532 37.3793 129.586 37.5156H129.658L130.2 34.2727H131.474L130.025 43H128.781L128.955 41.9815H128.849C128.749 42.1207 128.612 42.2798 128.435 42.4588C128.262 42.6378 128.041 42.794 127.771 42.9276C127.501 43.0611 127.167 43.1278 126.769 43.1278ZM127.2 42.0412C127.566 42.0412 127.894 41.9446 128.184 41.7514C128.477 41.5554 128.72 41.2841 128.913 40.9375C129.109 40.5909 129.245 40.1875 129.322 39.7273C129.399 39.2727 129.397 38.875 129.318 38.5341C129.238 38.1932 129.085 37.9276 128.857 37.7372C128.63 37.5469 128.33 37.4517 127.958 37.4517C127.575 37.4517 127.241 37.5511 126.957 37.75C126.673 37.9489 126.44 38.2202 126.258 38.5639C126.079 38.9077 125.954 39.2955 125.883 39.7273C125.809 40.1648 125.806 40.5582 125.874 40.9077C125.943 41.2571 126.086 41.5341 126.305 41.7386C126.524 41.9403 126.822 42.0412 127.2 42.0412ZM135.3 45.4545C135.107 45.4545 134.935 45.4389 134.784 45.4077C134.634 45.3793 134.521 45.348 134.448 45.3139L134.933 44.2699C135.158 44.3324 135.358 44.3565 135.534 44.3423C135.713 44.3281 135.881 44.2543 136.037 44.1207C136.193 43.9872 136.352 43.777 136.514 43.4901L136.753 43.0597L135.47 36.4545H136.783L137.592 41.5469H137.661L140.166 36.4545H141.585L137.661 43.8651C137.476 44.2173 137.266 44.5099 137.03 44.7429C136.797 44.9787 136.536 45.1563 136.246 45.2756C135.959 45.3949 135.644 45.4545 135.3 45.4545ZM144.196 43.1321C143.574 43.1321 143.054 42.9901 142.636 42.706C142.219 42.419 141.925 42.0185 141.754 41.5043C141.587 40.9872 141.558 40.3864 141.669 39.7017C141.777 39.0312 141.994 38.446 142.321 37.946C142.651 37.446 143.063 37.0582 143.557 36.7827C144.054 36.5071 144.607 36.3693 145.215 36.3693C145.837 36.3693 146.355 36.5128 146.77 36.7997C147.188 37.0866 147.482 37.4886 147.652 38.0057C147.823 38.5227 147.852 39.125 147.742 39.8125C147.634 40.4773 147.413 41.0597 147.081 41.5597C146.752 42.0568 146.34 42.4432 145.845 42.7188C145.351 42.9943 144.801 43.1321 144.196 43.1321ZM144.269 42.0625C144.678 42.0625 145.034 41.9545 145.338 41.7386C145.645 41.5227 145.895 41.2358 146.088 40.8778C146.281 40.5199 146.413 40.1278 146.484 39.7017C146.55 39.2898 146.548 38.9134 146.48 38.5724C146.415 38.2287 146.273 37.9531 146.054 37.7457C145.835 37.5384 145.531 37.4347 145.142 37.4347C144.733 37.4347 144.374 37.544 144.064 37.7628C143.757 37.9787 143.507 38.267 143.314 38.6278C143.124 38.9886 142.994 39.3821 142.926 39.8082C142.861 40.2173 142.861 40.5938 142.926 40.9375C142.992 41.2784 143.134 41.5511 143.352 41.7557C143.571 41.9602 143.877 42.0625 144.269 42.0625ZM153.178 40.2855L153.817 36.4545H155.095L154.004 43H152.752L152.943 41.8665H152.875C152.671 42.2159 152.381 42.5071 152.006 42.7401C151.634 42.9702 151.202 43.0852 150.71 43.0852C150.29 43.0852 149.933 42.9929 149.641 42.8082C149.351 42.6207 149.145 42.3438 149.023 41.9773C148.901 41.6108 148.884 41.1577 148.972 40.6179L149.671 36.4545H150.945L150.276 40.4645C150.205 40.9105 150.271 41.2656 150.476 41.5298C150.681 41.794 150.979 41.9261 151.371 41.9261C151.61 41.9261 151.857 41.8665 152.112 41.7472C152.368 41.6278 152.594 41.4474 152.79 41.206C152.989 40.9645 153.118 40.6577 153.178 40.2855ZM155.656 43L156.747 36.4545H157.979L157.804 37.4943H157.872C158.048 37.142 158.306 36.8651 158.644 36.6634C158.982 36.4588 159.342 36.3565 159.726 36.3565C159.808 36.3565 159.902 36.3594 160.007 36.3651C160.112 36.3679 160.198 36.375 160.263 36.3864L160.058 37.6051C160.01 37.5909 159.922 37.5753 159.794 37.5582C159.666 37.5384 159.534 37.5284 159.398 37.5284C159.1 37.5284 158.823 37.5923 158.567 37.7202C158.311 37.8452 158.097 38.0199 157.923 38.2443C157.75 38.4659 157.638 38.7187 157.587 39.0028L156.931 43H155.656ZM165.229 43.1449C164.814 43.1449 164.452 43.0682 164.142 42.9148C163.833 42.7585 163.604 42.5327 163.456 42.2372C163.308 41.9418 163.27 41.5795 163.341 41.1506C163.404 40.7812 163.526 40.4773 163.708 40.2386C163.892 40 164.117 39.8111 164.381 39.6719C164.645 39.5298 164.932 39.4233 165.242 39.3523C165.551 39.2812 165.864 39.2287 166.179 39.1946C166.577 39.1491 166.899 39.1108 167.146 39.0795C167.396 39.0483 167.584 39 167.709 38.9347C167.834 38.8665 167.909 38.7557 167.935 38.6023V38.5724C167.994 38.2031 167.941 37.9162 167.773 37.7116C167.608 37.5043 167.321 37.4006 166.912 37.4006C166.486 37.4006 166.128 37.4943 165.838 37.6818C165.551 37.8693 165.34 38.0795 165.203 38.3125L164.061 38.0398C164.266 37.642 164.526 37.321 164.841 37.0767C165.159 36.8295 165.507 36.6506 165.885 36.5398C166.263 36.4261 166.649 36.3693 167.044 36.3693C167.306 36.3693 167.577 36.4006 167.858 36.4631C168.139 36.5227 168.395 36.6335 168.625 36.7955C168.858 36.9574 169.031 37.1889 169.145 37.4901C169.259 37.7884 169.276 38.1761 169.196 38.6534L168.476 43H167.232L167.385 42.1051H167.334C167.226 42.2699 167.075 42.4318 166.882 42.5909C166.692 42.75 166.459 42.8821 166.183 42.9872C165.908 43.0923 165.59 43.1449 165.229 43.1449ZM165.664 42.1222C166.019 42.1222 166.333 42.0526 166.605 41.9134C166.881 41.7741 167.104 41.5923 167.274 41.3679C167.445 41.1406 167.551 40.8977 167.594 40.6392L167.735 39.7955C167.681 39.8409 167.585 39.8821 167.449 39.919C167.316 39.956 167.165 39.9886 166.997 40.017C166.83 40.0455 166.665 40.0696 166.503 40.0895C166.344 40.1094 166.212 40.1278 166.107 40.1449C165.857 40.1761 165.622 40.2287 165.404 40.3026C165.188 40.3764 165.007 40.483 164.862 40.6222C164.717 40.7585 164.627 40.9403 164.59 41.1676C164.539 41.483 164.614 41.7216 164.816 41.8835C165.02 42.0426 165.303 42.1222 165.664 42.1222ZM170.113 43L171.204 36.4545H172.436L172.261 37.4943H172.329C172.505 37.142 172.762 36.8651 173.1 36.6634C173.438 36.4588 173.799 36.3565 174.183 36.3565C174.265 36.3565 174.359 36.3594 174.464 36.3651C174.569 36.3679 174.654 36.375 174.72 36.3864L174.515 37.6051C174.467 37.5909 174.379 37.5753 174.251 37.5582C174.123 37.5384 173.991 37.5284 173.855 37.5284C173.556 37.5284 173.279 37.5923 173.024 37.7202C172.768 37.8452 172.553 38.0199 172.38 38.2443C172.207 38.4659 172.095 38.7187 172.044 39.0028L171.387 43H170.113ZM179.215 36.4545L179.049 37.4773H175.474L175.64 36.4545H179.215ZM176.854 34.8864H178.128L177.097 41.0781C177.057 41.3253 177.064 41.5114 177.118 41.6364C177.172 41.7585 177.255 41.8423 177.366 41.8878C177.479 41.9304 177.606 41.9517 177.745 41.9517C177.847 41.9517 177.937 41.9446 178.013 41.9304C178.09 41.9162 178.151 41.9048 178.197 41.8963L178.265 42.9489C178.18 42.9773 178.064 43.0057 177.92 43.0341C177.778 43.0653 177.604 43.0824 177.4 43.0852C177.064 43.0909 176.762 43.0312 176.492 42.9062C176.222 42.7784 176.02 42.5852 175.887 42.3267C175.753 42.0653 175.721 41.7372 175.789 41.3423L176.854 34.8864ZM180.893 43L180.057 36.4545H181.374L181.856 41.2614H181.92L184.008 36.4545H185.324L185.802 41.2401H185.866L187.941 36.4545H189.258L186.245 43H184.945L184.4 38.2741H184.302L182.188 43H180.893ZM191.904 43.1321C191.281 43.1321 190.762 42.9901 190.344 42.706C189.926 42.419 189.632 42.0185 189.462 41.5043C189.294 40.9872 189.266 40.3864 189.377 39.7017C189.485 39.0312 189.702 38.446 190.029 37.946C190.358 37.446 190.77 37.0582 191.264 36.7827C191.762 36.5071 192.314 36.3693 192.922 36.3693C193.544 36.3693 194.063 36.5128 194.478 36.7997C194.895 37.0866 195.189 37.4886 195.36 38.0057C195.53 38.5227 195.56 39.125 195.449 39.8125C195.341 40.4773 195.121 41.0597 194.789 41.5597C194.459 42.0568 194.047 42.4432 193.553 42.7188C193.058 42.9943 192.509 43.1321 191.904 43.1321ZM191.976 42.0625C192.385 42.0625 192.742 41.9545 193.046 41.7386C193.353 41.5227 193.603 41.2358 193.796 40.8778C193.989 40.5199 194.121 40.1278 194.192 39.7017C194.257 39.2898 194.256 38.9134 194.188 38.5724C194.122 38.2287 193.98 37.9531 193.762 37.7457C193.543 37.5384 193.239 37.4347 192.85 37.4347C192.441 37.4347 192.081 37.544 191.772 37.7628C191.465 37.9787 191.215 38.267 191.022 38.6278C190.831 38.9886 190.702 39.3821 190.634 39.8082C190.568 40.2173 190.568 40.5938 190.634 40.9375C190.699 41.2784 190.841 41.5511 191.06 41.7557C191.279 41.9602 191.584 42.0625 191.976 42.0625ZM196.287 43L197.378 36.4545H198.61L198.435 37.4943H198.503C198.679 37.142 198.936 36.8651 199.274 36.6634C199.612 36.4588 199.973 36.3565 200.357 36.3565C200.439 36.3565 200.533 36.3594 200.638 36.3651C200.743 36.3679 200.828 36.375 200.894 36.3864L200.689 37.6051C200.641 37.5909 200.553 37.5753 200.425 37.5582C200.297 37.5384 200.165 37.5284 200.029 37.5284C199.73 37.5284 199.453 37.5923 199.198 37.7202C198.942 37.8452 198.728 38.0199 198.554 38.2443C198.381 38.4659 198.269 38.7187 198.218 39.0028L197.561 43H196.287ZM202.394 40.7798L202.637 39.2244H202.863L205.94 36.4545H207.465L203.971 39.608H203.771L202.394 40.7798ZM200.856 43L202.305 34.2727H203.579L202.13 43H200.856ZM204.99 43L203.166 39.8892L204.184 38.9986L206.554 43H204.99Z" fill="#191919"/>
</g>
<g filter="url(#filter2_di_452_7741)">
<path d="M290 39C290 26.2975 300.297 16 313 16C325.703 16 336 26.2975 336 39C336 51.7025 325.703 62 313 62C300.297 62 290 51.7025 290 39Z" fill="#FEFEFF"/>
<path d="M313 20C323.493 20 332 28.5066 332 39C332 49.4934 323.493 58 313 58C302.507 58 294 49.4934 294 39C294 28.5066 302.507 20 313 20Z" fill="url(#paint0_linear_452_7741)"/>
<path d="M313 20C323.493 20 332 28.5066 332 39C332 49.4934 323.493 58 313 58C302.507 58 294 49.4934 294 39C294 28.5066 302.507 20 313 20Z" stroke="#F0EFFF" stroke-width="2"/>
<path d="M306 36H320" stroke="#4538CB" stroke-width="2.5" stroke-linecap="round"/>
<path d="M306 43H320" stroke="#4538CB" stroke-width="2.5" stroke-linecap="round"/>
</g>
<g filter="url(#filter3_d_452_7741)">
<path d="M16 119C16 98.2582 16 87.8873 22.4437 81.4437C28.8873 75 39.2582 75 60 75H292C312.742 75 323.113 75 329.556 81.4437C336 87.8873 336 98.2582 336 119V222C336 242.742 336 253.113 329.556 259.556C323.113 266 312.742 266 292 266H60C39.2582 266 28.8873 266 22.4437 259.556C16 253.113 16 242.742 16 222V119Z" fill="#FEFEFF"/>
<rect x="23" y="82" width="306" height="177" rx="18" stroke="url(#paint1_linear_452_7741)" stroke-width="4"/>
<path d="M176 99.5C215.488 99.5 247.5 131.512 247.5 171C247.5 210.488 215.488 242.5 176 242.5C136.512 242.5 104.5 210.488 104.5 171C104.5 131.512 136.512 99.5 176 99.5Z" fill="#FEFEFF"/>
<path d="M176 99.5C215.488 99.5 247.5 131.512 247.5 171C247.5 210.488 215.488 242.5 176 242.5C136.512 242.5 104.5 210.488 104.5 171C104.5 131.512 136.512 99.5 176 99.5Z" stroke="#F5F5F5"/>
<path d="M190 177H165.5H190ZM190 167.4H179.5H190ZM205.75 178C205.75 191.198 205.75 197.799 201.392 201.898C197.035 205.996 190.024 206 176 206H173.294C161.884 206 156.172 206 152.21 203.207C151.083 202.416 150.075 201.467 149.218 200.389C146.25 196.658 146.25 191.289 146.25 180.544V171.637C146.25 161.266 146.25 156.079 147.892 151.939C150.531 145.278 156.109 140.028 163.186 137.543C167.582 136 173.088 136 184.113 136C190.406 136 193.556 136 196.069 136.882C200.111 138.303 203.3 141.302 204.808 145.107C205.746 147.473 205.746 150.437 205.746 156.363L205.75 178Z" fill="#F3F2FF"/>
<path d="M190 177H165.5M190 167.4H179.5M205.75 178C205.75 191.198 205.75 197.799 201.392 201.898C197.035 205.996 190.024 206 176 206H173.294C161.884 206 156.172 206 152.21 203.207C151.083 202.416 150.075 201.467 149.218 200.389C146.25 196.658 146.25 191.289 146.25 180.544V171.637C146.25 161.266 146.25 156.079 147.892 151.939C150.531 145.278 156.109 140.028 163.186 137.543C167.582 136 173.088 136 184.113 136C190.406 136 193.556 136 196.069 136.882C200.111 138.303 203.3 141.302 204.808 145.107C205.746 147.473 205.746 150.437 205.746 156.363L205.75 178Z" stroke="#D2CEFE" stroke-width="1.5" stroke-linecap="round" stroke-linejoin="round"/>
<mask id="path-15-inside-1_452_7741" fill="white">
<path d="M146.25 171C146.25 167.906 147.479 164.939 149.667 162.751C151.854 160.564 154.822 159.334 157.915 159.334C160.246 159.334 162.994 159.74 165.258 159.135C166.248 158.869 167.15 158.347 167.874 157.622C168.599 156.897 169.12 155.995 169.385 155.005C169.99 152.74 169.584 149.993 169.584 147.662C169.585 144.569 170.815 141.602 173.002 139.416C175.19 137.229 178.157 136 181.25 136"/>
</mask>
<path d="M146.25 171C146.25 167.906 147.479 164.939 149.667 162.751C151.854 160.564 154.822 159.334 157.915 159.334C160.246 159.334 162.994 159.74 165.258 159.135C166.248 158.869 167.15 158.347 167.874 157.622C168.599 156.897 169.12 155.995 169.385 155.005C169.99 152.74 169.584 149.993 169.584 147.662C169.585 144.569 170.815 141.602 173.002 139.416C175.19 137.229 178.157 136 181.25 136" fill="#D1DDFF" fill-opacity="0.15"/>
<path d="M144.75 171C144.75 171.828 145.422 172.5 146.25 172.5C147.078 172.5 147.75 171.828 147.75 171H144.75ZM157.915 159.334V157.834V159.334ZM165.258 159.135L165.646 160.584L165.648 160.583L165.258 159.135ZM169.385 155.005L170.834 155.394L170.834 155.392L169.385 155.005ZM169.584 147.662L168.084 147.662V147.662H169.584ZM181.25 137.5C182.078 137.5 182.75 136.828 182.75 136C182.75 135.172 182.078 134.5 181.25 134.5V137.5ZM146.25 171H147.75C147.75 168.304 148.821 165.718 150.727 163.812L149.667 162.751L148.606 161.691C146.137 164.16 144.75 167.508 144.75 171H146.25ZM149.667 162.751L150.727 163.812C152.634 161.905 155.219 160.834 157.915 160.834V159.334V157.834C154.424 157.834 151.075 159.222 148.606 161.691L149.667 162.751ZM157.915 159.334V160.834C158.46 160.834 159.037 160.858 159.659 160.887C160.27 160.915 160.926 160.948 161.581 160.961C162.882 160.988 164.305 160.943 165.646 160.584L165.258 159.135L164.871 157.686C163.947 157.933 162.865 157.987 161.643 157.962C161.036 157.95 160.427 157.919 159.797 157.89C159.177 157.861 158.537 157.834 157.915 157.834V159.334ZM165.258 159.135L165.648 160.583C166.892 160.249 168.025 159.593 168.935 158.682L167.874 157.622L166.813 156.562C166.275 157.101 165.604 157.489 164.869 157.687L165.258 159.135ZM167.874 157.622L168.935 158.682C169.846 157.771 170.5 156.637 170.834 155.394L169.385 155.005L167.936 154.616C167.739 155.352 167.352 156.023 166.813 156.562L167.874 157.622ZM169.385 155.005L170.834 155.392C171.193 154.052 171.238 152.628 171.211 151.328C171.198 150.673 171.165 150.016 171.137 149.405C171.108 148.784 171.084 148.206 171.084 147.662H169.584H168.084C168.084 148.283 168.111 148.923 168.14 149.543C168.169 150.174 168.2 150.783 168.212 151.389C168.237 152.611 168.183 153.694 167.936 154.618L169.385 155.005ZM169.584 147.662L171.084 147.662C171.085 144.967 172.157 142.382 174.063 140.476L173.002 139.416L171.942 138.355C169.473 140.823 168.086 144.171 168.084 147.662L169.584 147.662ZM173.002 139.416L174.063 140.476C175.969 138.571 178.554 137.5 181.25 137.5V136V134.5C177.759 134.5 174.411 135.887 171.942 138.355L173.002 139.416Z" fill="#D2CEFE" mask="url(#path-15-inside-1_452_7741)"/>
<path d="M188 199C188 189.611 195.611 182 205 182C214.389 182 222 189.611 222 199C222 208.389 214.389 216 205 216C195.611 216 188 208.389 188 199Z" fill="url(#paint2_linear_452_7741)"/>
<path d="M205 192L205 207" stroke="white" stroke-width="1.5" stroke-linecap="round" stroke-linejoin="round"/>
<path d="M200 196L204.293 191.707C204.626 191.374 204.793 191.207 205 191.207C205.207 191.207 205.374 191.374 205.707 191.707L210 196" stroke="white" stroke-width="1.5" stroke-linecap="round" stroke-linejoin="round"/>
</g>
</g>
<defs>
<filter id="filter0_d_452_7741" x="0" y="0" width="352" height="288" filterUnits="userSpaceOnUse" color-interpolation-filters="sRGB">
<feFlood flood-opacity="0" result="BackgroundImageFix"/>
<feColorMatrix in="SourceAlpha" type="matrix" values="0 0 0 0 0 0 0 0 0 0 0 0 0 0 0 0 0 0 127 0" result="hardAlpha"/>
<feMorphology radius="2" operator="erode" in="SourceAlpha" result="effect1_dropShadow_452_7741"/>
<feOffset dy="4"/>
<feGaussianBlur stdDeviation="3"/>
<feComposite in2="hardAlpha" operator="out"/>
<feColorMatrix type="matrix" values="0 0 0 0 0 0 0 0 0 0 0 0 0 0 0 0 0 0 0.11 0"/>
<feBlend mode="normal" in2="BackgroundImageFix" result="effect1_dropShadow_452_7741"/>
<feBlend mode="normal" in="SourceGraphic" in2="effect1_dropShadow_452_7741" result="shape"/>
</filter>
<filter id="filter1_di_452_7741" x="15" y="13" width="268" height="54" filterUnits="userSpaceOnUse" color-interpolation-filters="sRGB">
<feFlood flood-opacity="0" result="BackgroundImageFix"/>
<feColorMatrix in="SourceAlpha" type="matrix" values="0 0 0 0 0 0 0 0 0 0 0 0 0 0 0 0 0 0 127 0" result="hardAlpha"/>
<feOffset dy="1"/>
<feGaussianBlur stdDeviation="2"/>
<feComposite in2="hardAlpha" operator="out"/>
<feColorMatrix type="matrix" values="0 0 0 0 0.560784 0 0 0 0 0.533333 0 0 0 0 0.878431 0 0 0 0.5 0"/>
<feBlend mode="normal" in2="BackgroundImageFix" result="effect1_dropShadow_452_7741"/>
<feBlend mode="normal" in="SourceGraphic" in2="effect1_dropShadow_452_7741" result="shape"/>
<feColorMatrix in="SourceAlpha" type="matrix" values="0 0 0 0 0 0 0 0 0 0 0 0 0 0 0 0 0 0 127 0" result="hardAlpha"/>
<feOffset dx="-2" dy="2"/>
<feGaussianBlur stdDeviation="1.5"/>
<feComposite in2="hardAlpha" operator="arithmetic" k2="-1" k3="1"/>
<feColorMatrix type="matrix" values="0 0 0 0 1 0 0 0 0 1 0 0 0 0 1 0 0 0 0.1 0"/>
<feBlend mode="normal" in2="shape" result="effect2_innerShadow_452_7741"/>
</filter>
<filter id="filter2_di_452_7741" x="287" y="14" width="52" height="52" filterUnits="userSpaceOnUse" color-interpolation-filters="sRGB">
<feFlood flood-opacity="0" result="BackgroundImageFix"/>
<feColorMatrix in="SourceAlpha" type="matrix" values="0 0 0 0 0 0 0 0 0 0 0 0 0 0 0 0 0 0 127 0" result="hardAlpha"/>
<feMorphology radius="1" operator="erode" in="SourceAlpha" result="effect1_dropShadow_452_7741"/>
<feOffset dy="1"/>
<feGaussianBlur stdDeviation="2"/>
<feComposite in2="hardAlpha" operator="out"/>
<feColorMatrix type="matrix" values="0 0 0 0 0.560784 0 0 0 0 0.533333 0 0 0 0 0.878431 0 0 0 0.5 0"/>
<feBlend mode="normal" in2="BackgroundImageFix" result="effect1_dropShadow_452_7741"/>
<feBlend mode="normal" in="SourceGraphic" in2="effect1_dropShadow_452_7741" result="shape"/>
<feColorMatrix in="SourceAlpha" type="matrix" values="0 0 0 0 0 0 0 0 0 0 0 0 0 0 0 0 0 0 127 0" result="hardAlpha"/>
<feOffset dx="-2" dy="2"/>
<feGaussianBlur stdDeviation="1.5"/>
<feComposite in2="hardAlpha" operator="arithmetic" k2="-1" k3="1"/>
<feColorMatrix type="matrix" values="0 0 0 0 1 0 0 0 0 1 0 0 0 0 1 0 0 0 0.1 0"/>
<feBlend mode="normal" in2="shape" result="effect2_innerShadow_452_7741"/>
</filter>
<filter id="filter3_d_452_7741" x="10" y="71" width="332" height="203" filterUnits="userSpaceOnUse" color-interpolation-filters="sRGB">
<feFlood flood-opacity="0" result="BackgroundImageFix"/>
<feColorMatrix in="SourceAlpha" type="matrix" values="0 0 0 0 0 0 0 0 0 0 0 0 0 0 0 0 0 0 127 0" result="hardAlpha"/>
<feOffset dy="2"/>
<feGaussianBlur stdDeviation="3"/>
<feComposite in2="hardAlpha" operator="out"/>
<feColorMatrix type="matrix" values="0 0 0 0 0.560784 0 0 0 0 0.533333 0 0 0 0 0.878431 0 0 0 0.5 0"/>
<feBlend mode="normal" in2="BackgroundImageFix" result="effect1_dropShadow_452_7741"/>
<feBlend mode="normal" in="SourceGraphic" in2="effect1_dropShadow_452_7741" result="shape"/>
</filter>
<linearGradient id="paint0_linear_452_7741" x1="313" y1="19" x2="313" y2="59" gradientUnits="userSpaceOnUse">
<stop stop-color="#FEFEFF"/>
<stop offset="1" stop-color="#E3E0FF"/>
</linearGradient>
<linearGradient id="paint1_linear_452_7741" x1="25.4569" y1="256.5" x2="327.319" y2="97.4113" gradientUnits="userSpaceOnUse">
<stop offset="0.0606566" stop-color="#FF8484"/>
<stop offset="0.18194" stop-color="#9E70EE"/>
<stop offset="0.294656" stop-color="#4538CB"/>
<stop offset="0.422891" stop-color="#BA67DA"/>
<stop offset="0.576667" stop-color="#D2D0ED" stop-opacity="0.5"/>
<stop offset="1" stop-color="#D2D0ED" stop-opacity="0.5"/>
</linearGradient>
<linearGradient id="paint2_linear_452_7741" x1="195.192" y1="182" x2="205" y2="216" gradientUnits="userSpaceOnUse">
<stop stop-color="#6A5FD5"/>
<stop offset="1" stop-color="#4538CB"/>
</linearGradient>
</defs>
</svg>
