<svg width="14" height="14" viewBox="0 0 14 14" fill="none" xmlns="http://www.w3.org/2000/svg">
<g clip-path="url(#clip0_209_8246)">
<path d="M6.70817 8.17329C5.51431 8.11772 4.30679 8.40354 3.25342 9.03076C2.42814 9.52217 0.2643 10.5256 1.58222 11.7812C2.22602 12.3945 2.94304 12.8332 3.84451 12.8332H6.99984" stroke="#7D7D7D" stroke-width="1.5" stroke-linecap="round" stroke-linejoin="round"/>
<path d="M9.0415 3.7915C9.0415 5.24125 7.86625 6.4165 6.4165 6.4165C4.96676 6.4165 3.7915 5.24125 3.7915 3.7915C3.7915 2.34176 4.96676 1.1665 6.4165 1.1665C7.86625 1.1665 9.0415 2.34176 9.0415 3.7915Z" stroke="#7D7D7D" stroke-width="1.5"/>
<path d="M10.4998 12.083V12.833M10.4998 12.083C9.82505 12.083 9.23054 11.7516 8.88185 11.2483M10.4998 12.083C11.1746 12.083 11.7691 11.7516 12.1178 11.2483M10.4998 8.33301C11.1747 8.33301 11.7692 8.66451 12.1179 9.16785M10.4998 8.33301C9.825 8.33301 9.23045 8.66451 8.88178 9.16785M10.4998 8.33301V7.58301M12.8332 8.70801L12.1179 9.16785M8.16675 11.708L8.88185 11.2483M8.1665 8.70801L8.88178 9.16785M12.8329 11.708L12.1178 11.2483M12.1179 9.16785C12.3241 9.46549 12.4443 9.82321 12.4443 10.208C12.4443 10.5929 12.324 10.9506 12.1178 11.2483M8.88178 9.16785C8.6756 9.46549 8.55539 9.82321 8.55539 10.208C8.55539 10.5929 8.67563 10.9506 8.88185 11.2483" stroke="#7D7D7D" stroke-width="1.5" stroke-linecap="round"/>
</g>
<defs>
<clipPath id="clip0_209_8246">
<rect width="14" height="14" fill="white"/>
</clipPath>
</defs>
</svg>
