<svg width="22" height="22" viewBox="0 0 22 22" fill="none" xmlns="http://www.w3.org/2000/svg">
<path d="M2.36771 7.56137V0H11.7399C17.1988 0.216039 18.6457 5.83306 18.6457 8.02946C18.6457 13.7977 14.4694 16.743 11.5097 16.743H5.13004V22H2.36771V11.6301H5.13004V13.8985H11.5097C13.2855 13.8985 15.8505 11.925 15.8505 8.13748C15.8505 4.17676 13.154 2.80851 11.7399 2.80851H5.13004V7.56137H2.36771Z" fill="#4538CB"/>
<path fill-rule="evenodd" clip-rule="evenodd" d="M0.984042 8.53115L15.8176 9.03763V10.0458L0.98796 10.6197C0.44806 10.6406 0 10.167 0 9.57548C7.14603e-06 8.98567 0.445621 8.51277 0.984042 8.53115ZM1.44694 9.14565C1.229 9.14565 1.05232 9.33911 1.05232 9.57773C1.05232 9.81636 1.22899 10.0098 1.44694 10.0098H3.28849C3.50643 10.0098 3.68311 9.81636 3.68311 9.57773C3.6831 9.33911 3.50643 9.14565 3.28849 9.14565H1.44694Z" fill="#4538CB"/>
<path d="M18.1854 0H19.6323V1.58429H18.1854V0Z" fill="#4538CB"/>
<path d="M20.5531 0H22V1.58429H20.5531V0Z" fill="#4538CB"/>
<path d="M20.5531 2.59247H22V4.17676H20.5531V2.59247Z" fill="#4538CB"/>
</svg>
