<svg width="12" height="12" viewBox="0 0 12 12" fill="none" xmlns="http://www.w3.org/2000/svg">
<path d="M1.29148 4.12439V0H6.40359C9.38117 0.11784 10.1704 3.18167 10.1704 4.37971C10.1704 7.52602 7.89238 9.13257 6.27803 9.13257H2.79821V12H1.29148V6.3437H2.79821V7.58102H6.27803C7.24664 7.58102 8.64574 6.50457 8.64574 4.43862C8.64574 2.27823 7.17489 1.53191 6.40359 1.53191H2.79821V4.12439H1.29148Z" fill="white"/>
<path fill-rule="evenodd" clip-rule="evenodd" d="M0.53675 4.65336L8.6278 4.92962V5.47954L0.538887 5.79255C0.244396 5.80394 0 5.54564 0 5.22299C3.89783e-06 4.90127 0.243066 4.64333 0.53675 4.65336ZM0.789238 4.98854C0.670362 4.98854 0.573993 5.09406 0.573991 5.22422C0.573991 5.35438 0.67036 5.4599 0.789238 5.4599H1.79372C1.9126 5.4599 2.00897 5.35438 2.00897 5.22422C2.00897 5.09406 1.9126 4.98854 1.79372 4.98854H0.789238Z" fill="white"/>
<path d="M9.91928 0H10.7085V0.864157H9.91928V0Z" fill="white"/>
<path d="M11.2108 0H12V0.864157H11.2108V0Z" fill="white"/>
<path d="M11.2108 1.41408H12V2.27823H11.2108V1.41408Z" fill="white"/>
</svg>
